Radio-Canada-Regular.ufo
<glyph name="dollar" format="1">
  <advance width="660"/>
  <unicode hex="0024"/>
  <outline>
    <contour>
      <point x="68" y="94" type="line"/>
      <point x="130" y="33"/>
      <point x="238" y="-10"/>
      <point x="338" y="-10" type="curve"/>
      <point x="498" y="-10"/>
      <point x="587" y="76"/>
      <point x="587" y="183" type="curve"/>
      <point x="587" y="271"/>
      <point x="525" y="350"/>
      <point x="348" y="403" type="curve" smooth="yes"/>
      <point x="224" y="440"/>
      <point x="191" y="477"/>
      <point x="191" y="522" type="curve"/>
      <point x="191" y="572"/>
      <point x="236" y="617"/>
      <point x="325" y="617" type="curve" smooth="yes"/>
      <point x="396" y="617"/>
      <point x="458" y="589"/>
      <point x="508" y="541" type="curve"/>
      <point x="563" y="613" type="line"/>
      <point x="499" y="668"/>
      <point x="411" y="700"/>
      <point x="332" y="700" type="curve"/>
      <point x="193" y="700"/>
      <point x="98" y="615"/>
      <point x="98" y="512" type="curve"/>
      <point x="98" y="426"/>
      <point x="148" y="359"/>
      <point x="320" y="307" type="curve" smooth="yes"/>
      <point x="451" y="267"/>
      <point x="488" y="224"/>
      <point x="488" y="171" type="curve"/>
      <point x="488" y="120"/>
      <point x="439" y="77"/>
      <point x="346" y="77" type="curve"/>
      <point x="256" y="77"/>
      <point x="182" y="108"/>
      <point x="124" y="163" type="curve"/>
    </contour>
    <contour>
      <point x="303.0" y="-100.0" type="line"/>
      <point x="379.0" y="-100.0" type="line"/>
      <point x="379.0" y="340.0" type="line"/>
      <point x="303.0" y="364.0" type="line"/>
    </contour>
    <contour>
      <point x="303" y="364" type="line"/>
      <point x="379" y="340" type="line"/>
      <point x="379" y="790" type="line"/>
      <point x="303" y="790" type="line"/>
    </contour>
  </outline>
</glyph>
<glyph name="ampersand" format="1">
  <advance width="673"/>
  <unicode hex="0026"/>
  <outline>
    <contour>
      <point x="54" y="170" type="curve" smooth="yes"/>
      <point x="54" y="53"/>
      <point x="150" y="-10"/>
      <point x="260" y="-10" type="curve" smooth="yes"/>
      <point x="416" y="-10"/>
      <point x="552" y="146"/>
      <point x="617" y="292" type="curve"/>
      <point x="536" y="332" type="line"/>
      <point x="485" y="190"/>
      <point x="376" y="74"/>
      <point x="260" y="74" type="curve" smooth="yes"/>
      <point x="193" y="74"/>
      <point x="150" y="109"/>
      <point x="150" y="170" type="curve" smooth="yes"/>
      <point x="150" y="226"/>
      <point x="189" y="257"/>
      <point x="260" y="296" type="curve" smooth="yes"/>
      <point x="385" y="365" type="line" smooth="yes"/>
      <point x="451" y="402"/>
      <point x="504" y="454"/>
      <point x="504" y="530" type="curve" smooth="yes"/>
      <point x="504" y="613"/>
      <point x="434" y="700"/>
      <point x="325" y="700" type="curve" smooth="yes"/>
      <point x="216" y="700"/>
      <point x="144" y="621"/>
      <point x="144" y="530" type="curve" smooth="yes"/>
      <point x="144" y="462"/>
      <point x="188" y="403"/>
      <point x="230" y="355" type="curve" smooth="yes"/>
      <point x="540" y="0" type="line"/>
      <point x="660" y="0" type="line"/>
      <point x="307" y="398" type="line" smooth="yes"/>
      <point x="258" y="453"/>
      <point x="234" y="483"/>
      <point x="234" y="530" type="curve" smooth="yes"/>
      <point x="234" y="580"/>
      <point x="268" y="616"/>
      <point x="325" y="616" type="curve" smooth="yes"/>
      <point x="382" y="616"/>
      <point x="414" y="580"/>
      <point x="414" y="530" type="curve" smooth="yes"/>
      <point x="414" y="482"/>
      <point x="384" y="458"/>
      <point x="334" y="430" type="curve" smooth="yes"/>
      <point x="188" y="350" type="line" smooth="yes"/>
      <point x="120" y="313"/>
      <point x="54" y="265"/>
    </contour>
  </outline>
</glyph>
<glyph name="parenright" format="1">
  <advance width="332"/>
  <unicode hex="0029"/>
  <outline>
    <contour>
      <point x="-35" y="-195" type="curve"/>
      <point x="-1" y="-238" type="line"/>
      <point x="152" y="-122"/>
      <point x="257" y="46"/>
      <point x="257" y="268" type="curve" smooth="yes"/>
      <point x="257" y="490"/>
      <point x="152" y="657"/>
      <point x="-1" y="773" type="curve"/>
      <point x="-35" y="730" type="line"/>
      <point x="90" y="621"/>
      <point x="175" y="447"/>
      <point x="175" y="268" type="curve" smooth="yes"/>
      <point x="175" y="89"/>
      <point x="90" y="-86"/>
    </contour>
  </outline>
</glyph>
<glyph name="plus" format="1">
  <advance width="640"/>
  <unicode hex="002B"/>
  <outline>
    <contour>
      <point x="93" y="250" type="line"/>
      <point x="547" y="250" type="line"/>
      <point x="547" y="330" type="line"/>
      <point x="93" y="330" type="line"/>
    </contour>
    <contour>
      <point x="279" y="65" type="line"/>
      <point x="361" y="65" type="line"/>
      <point x="361" y="515" type="line"/>
      <point x="279" y="515" type="line"/>
    </contour>
  </outline>
</glyph>
<glyph name="hyphen" format="1">
  <advance width="368"/>
  <unicode hex="002D"/>
  <outline>
    <contour>
      <point x="60" y="235" type="line"/>
      <point x="308" y="235" type="line"/>
      <point x="308" y="315" type="line"/>
      <point x="60" y="315" type="line"/>
    </contour>
  </outline>
</glyph>
<glyph name="zero" format="1">
  <advance width="640"/>
  <unicode hex="0030"/>
  <outline>
    <contour>
      <point x="57" y="345" type="curve" smooth="yes"/>
      <point x="57" y="102"/>
      <point x="176" y="-10"/>
      <point x="320" y="-10" type="curve" smooth="yes"/>
      <point x="464" y="-10"/>
      <point x="583" y="102"/>
      <point x="583" y="345" type="curve" smooth="yes"/>
      <point x="583" y="588"/>
      <point x="464" y="700"/>
      <point x="320" y="700" type="curve" smooth="yes"/>
      <point x="176" y="700"/>
      <point x="57" y="588"/>
    </contour>
    <contour>
      <point x="156" y="345" type="curve" smooth="yes"/>
      <point x="156" y="532"/>
      <point x="226" y="611"/>
      <point x="320" y="611" type="curve" smooth="yes"/>
      <point x="414" y="611"/>
      <point x="484" y="532"/>
      <point x="484" y="345" type="curve" smooth="yes"/>
      <point x="484" y="158"/>
      <point x="414" y="79"/>
      <point x="320" y="79" type="curve" smooth="yes"/>
      <point x="226" y="79"/>
      <point x="156" y="158"/>
    </contour>
  </outline>
</glyph>
<glyph name="one" format="1">
  <advance width="600"/>
  <unicode hex="0031"/>
  <outline>
    <contour>
      <point x="82.0" y="0" type="line"/>
      <point x="518.0" y="0" type="line"/>
      <point x="518.0" y="81" type="line"/>
      <point x="82.0" y="81" type="line"/>
    </contour>
    <contour>
      <point x="82.0" y="599" type="line"/>
      <point x="116.0" y="521" type="line"/>
      <point x="311.0" y="609" type="line"/>
      <point x="283.0" y="690" type="line"/>
    </contour>
    <contour>
      <point x="257.0" y="0" type="line"/>
      <point x="353.0" y="0" type="line"/>
      <point x="353.0" y="690" type="line"/>
      <point x="283.0" y="690" type="line"/>
      <point x="257.0" y="637" type="line"/>
    </contour>
  </outline>
</glyph>
<glyph name="two" format="1">
  <advance width="660"/>
  <unicode hex="0032"/>
  <outline>
    <contour>
      <point x="83" y="588" type="curve"/>
      <point x="148" y="523" type="line"/>
      <point x="195" y="579"/>
      <point x="243" y="609"/>
      <point x="314" y="609" type="curve"/>
      <point x="401" y="609"/>
      <point x="447" y="552"/>
      <point x="447" y="488" type="curve"/>
      <point x="447" y="434"/>
      <point x="426" y="401"/>
      <point x="341" y="316" type="curve" smooth="yes"/>
      <point x="92" y="66" type="line"/>
      <point x="143" y="0" type="line"/>
      <point x="405" y="250" type="line" smooth="yes"/>
      <point x="514" y="354"/>
      <point x="546" y="420"/>
      <point x="546" y="488" type="curve"/>
      <point x="546" y="613"/>
      <point x="445" y="700"/>
      <point x="317" y="700" type="curve" smooth="yes"/>
      <point x="220" y="700"/>
      <point x="146" y="659"/>
    </contour>
    <contour>
      <point x="92" y="0" type="line"/>
      <point x="556" y="0" type="line"/>
      <point x="556" y="86" type="line"/>
      <point x="138" y="86" type="line"/>
      <point x="92" y="66" type="line"/>
    </contour>
  </outline>
</glyph>
<glyph name="three" format="1">
  <advance width="600"/>
  <unicode hex="0033"/>
  <outline>
    <contour>
      <point x="43.0" y="84" type="line"/>
      <point x="106.0" y="20"/>
      <point x="183.0" y="-10"/>
      <point x="279.0" y="-10" type="curve"/>
      <point x="416.0" y="-10"/>
      <point x="532.0" y="66"/>
      <point x="532.0" y="205" type="curve" smooth="yes"/>
      <point x="532.0" y="340"/>
      <point x="430.0" y="408"/>
      <point x="293.0" y="408" type="curve" smooth="yes"/>
      <point x="234.0" y="408" type="line"/>
      <point x="181.0" y="390" type="line"/>
      <point x="181.0" y="329" type="line"/>
      <point x="264.0" y="329" type="line" smooth="yes"/>
      <point x="361.0" y="329"/>
      <point x="433.0" y="283"/>
      <point x="433.0" y="205" type="curve" smooth="yes"/>
      <point x="433.0" y="123"/>
      <point x="365.0" y="81"/>
      <point x="279.0" y="81" type="curve"/>
      <point x="208.0" y="81"/>
      <point x="152.0" y="103"/>
      <point x="108.0" y="152" type="curve"/>
    </contour>
    <contour>
      <point x="65.0" y="599" type="line"/>
      <point x="460.0" y="599" type="line"/>
      <point x="509.0" y="624" type="line"/>
      <point x="509.0" y="690" type="line"/>
      <point x="65.0" y="690" type="line"/>
    </contour>
    <contour>
      <point x="181.0" y="390" type="line"/>
      <point x="286.0" y="390" type="line"/>
      <point x="509.0" y="624" type="line"/>
      <point x="460.0" y="690" type="line"/>
    </contour>
  </outline>
</glyph>
<glyph name="four" format="1">
  <advance width="640"/>
  <unicode hex="0034"/>
  <outline>
    <contour>
      <point x="57" y="206" type="line"/>
      <point x="106" y="140" type="line"/>
      <point x="462" y="690" type="line"/>
      <point x="370" y="690" type="line"/>
    </contour>
    <contour>
      <point x="57" y="140" type="line"/>
      <point x="575" y="140" type="line"/>
      <point x="575" y="226" type="line"/>
      <point x="103" y="226" type="line"/>
      <point x="57" y="206" type="line"/>
    </contour>
    <contour>
      <point x="388" y="0" type="line"/>
      <point x="484" y="0" type="line"/>
      <point x="484" y="690" type="line"/>
      <point x="388" y="690" type="line"/>
    </contour>
  </outline>
</glyph>
<glyph name="five" format="1">
  <advance width="600"/>
  <unicode hex="0035"/>
  <outline>
    <contour>
      <point x="53.0" y="84" type="line"/>
      <point x="116.0" y="20"/>
      <point x="193.0" y="-10"/>
      <point x="289.0" y="-10" type="curve"/>
      <point x="436.0" y="-10"/>
      <point x="542.0" y="80"/>
      <point x="542.0" y="210" type="curve" smooth="yes"/>
      <point x="542.0" y="343"/>
      <point x="447.0" y="426"/>
      <point x="322.0" y="426" type="curve"/>
      <point x="254.0" y="426"/>
      <point x="195.0" y="401"/>
      <point x="153.0" y="358" type="curve"/>
      <point x="140.0" y="288" type="line"/>
      <point x="187.0" y="325"/>
      <point x="232.0" y="342"/>
      <point x="289.0" y="342" type="curve"/>
      <point x="381.0" y="342"/>
      <point x="443.0" y="286"/>
      <point x="443.0" y="210" type="curve" smooth="yes"/>
      <point x="443.0" y="132"/>
      <point x="381.0" y="81"/>
      <point x="289.0" y="81" type="curve"/>
      <point x="218.0" y="81"/>
      <point x="162.0" y="103"/>
      <point x="118.0" y="152" type="curve"/>
    </contour>
    <contour>
      <point x="94.0" y="321" type="line"/>
      <point x="140.0" y="288" type="line"/>
      <point x="183.0" y="350" type="line"/>
      <point x="201.0" y="690" type="line"/>
      <point x="112.0" y="690" type="line"/>
    </contour>
    <contour>
      <point x="112.0" y="690" type="line"/>
      <point x="162.0" y="597" type="line"/>
      <point x="497.0" y="597" type="line"/>
      <point x="497.0" y="690" type="line"/>
    </contour>
  </outline>
</glyph>
<glyph name="six" format="1">
  <advance width="660"/>
  <unicode hex="0036"/>
  <outline>
    <contour>
      <point x="82" y="320" type="curve"/>
      <point x="82" y="110"/>
      <point x="190" y="-10"/>
      <point x="336" y="-10" type="curve"/>
      <point x="467" y="-10"/>
      <point x="575" y="87"/>
      <point x="575" y="225" type="curve" smooth="yes"/>
      <point x="575" y="357"/>
      <point x="483" y="442"/>
      <point x="359" y="442" type="curve" smooth="yes"/>
      <point x="286" y="442"/>
      <point x="215" y="404"/>
      <point x="176" y="344" type="curve"/>
      <point x="176" y="270" type="line"/>
      <point x="218" y="320"/>
      <point x="275" y="350"/>
      <point x="343" y="350" type="curve" smooth="yes"/>
      <point x="418" y="350"/>
      <point x="476" y="300"/>
      <point x="476" y="222" type="curve" smooth="yes"/>
      <point x="476" y="138"/>
      <point x="414" y="76"/>
      <point x="341" y="76" type="curve"/>
      <point x="247" y="76"/>
      <point x="181" y="160"/>
      <point x="181" y="320" type="curve"/>
      <point x="181" y="528"/>
      <point x="284" y="611"/>
      <point x="375" y="611" type="curve"/>
      <point x="428" y="611"/>
      <point x="461" y="595"/>
      <point x="496" y="569" type="curve"/>
      <point x="545" y="649" type="line"/>
      <point x="498" y="683"/>
      <point x="443" y="700"/>
      <point x="385" y="700" type="curve"/>
      <point x="234" y="700"/>
      <point x="82" y="573"/>
    </contour>
  </outline>
</glyph>
<glyph name="seven" format="1">
  <advance width="640"/>
  <unicode hex="0037"/>
  <outline>
    <contour>
      <point x="80" y="599" type="line"/>
      <point x="485" y="599" type="line"/>
      <point x="534" y="624" type="line"/>
      <point x="534" y="690" type="line"/>
      <point x="80" y="690" type="line"/>
    </contour>
    <contour>
      <point x="186" y="0" type="line"/>
      <point x="292" y="0" type="line"/>
      <point x="534" y="624" type="line"/>
      <point x="469" y="690" type="line"/>
    </contour>
  </outline>
</glyph>
<glyph name="eight" format="1">
  <advance width="600"/>
  <unicode hex="0038"/>
  <outline>
    <contour>
      <point x="54.0" y="173" type="curve"/>
      <point x="54.0" y="63"/>
      <point x="147.0" y="-10"/>
      <point x="298.0" y="-10" type="curve"/>
      <point x="459.0" y="-10"/>
      <point x="546.0" y="75"/>
      <point x="546.0" y="181" type="curve"/>
      <point x="546.0" y="268"/>
      <point x="491.0" y="347"/>
      <point x="321.0" y="402" type="curve" smooth="yes"/>
      <point x="207.0" y="439"/>
      <point x="171.0" y="479"/>
      <point x="171.0" y="524" type="curve"/>
      <point x="171.0" y="574"/>
      <point x="209.0" y="619"/>
      <point x="299.0" y="619" type="curve"/>
      <point x="380.0" y="619"/>
      <point x="425.0" y="572"/>
      <point x="425.0" y="515" type="curve"/>
      <point x="425.0" y="457"/>
      <point x="377.0" y="409"/>
      <point x="285.0" y="393" type="curve"/>
      <point x="330.0" y="357" type="line"/>
      <point x="453.0" y="373"/>
      <point x="519.0" y="435"/>
      <point x="519.0" y="522" type="curve"/>
      <point x="519.0" y="624"/>
      <point x="430.0" y="700"/>
      <point x="299.0" y="700" type="curve"/>
      <point x="166.0" y="700"/>
      <point x="78.0" y="617"/>
      <point x="78.0" y="514" type="curve"/>
      <point x="78.0" y="428"/>
      <point x="131.0" y="366"/>
      <point x="293.0" y="312" type="curve" smooth="yes"/>
      <point x="416.0" y="271"/>
      <point x="447.0" y="221"/>
      <point x="447.0" y="169" type="curve"/>
      <point x="447.0" y="119"/>
      <point x="399.0" y="74"/>
      <point x="298.0" y="74" type="curve"/>
      <point x="205.0" y="74"/>
      <point x="148.0" y="115"/>
      <point x="148.0" y="179" type="curve"/>
      <point x="148.0" y="241"/>
      <point x="202.0" y="302"/>
      <point x="294.0" y="321" type="curve"/>
      <point x="249.0" y="357" type="line"/>
      <point x="126.0" y="339"/>
      <point x="54.0" y="266"/>
    </contour>
  </outline>
</glyph>
<glyph name="nine" format="1">
  <advance width="640"/>
  <unicode hex="0039"/>
  <outline>
    <contour>
      <point x="75" y="465" type="curve" smooth="yes"/>
      <point x="75" y="333"/>
      <point x="167" y="248"/>
      <point x="291" y="248" type="curve" smooth="yes"/>
      <point x="364" y="248"/>
      <point x="435" y="286"/>
      <point x="474" y="346" type="curve"/>
      <point x="474" y="420" type="line"/>
      <point x="432" y="370"/>
      <point x="375" y="340"/>
      <point x="307" y="340" type="curve" smooth="yes"/>
      <point x="232" y="340"/>
      <point x="174" y="390"/>
      <point x="174" y="468" type="curve" smooth="yes"/>
      <point x="174" y="552"/>
      <point x="236" y="614"/>
      <point x="309" y="614" type="curve"/>
      <point x="403" y="614"/>
      <point x="469" y="530"/>
      <point x="469" y="370" type="curve"/>
      <point x="469" y="161"/>
      <point x="366" y="79"/>
      <point x="275" y="79" type="curve"/>
      <point x="222" y="79"/>
      <point x="189" y="95"/>
      <point x="154" y="121" type="curve"/>
      <point x="105" y="41" type="line"/>
      <point x="152" y="7"/>
      <point x="207" y="-10"/>
      <point x="265" y="-10" type="curve"/>
      <point x="416" y="-10"/>
      <point x="568" y="116"/>
      <point x="568" y="370" type="curve"/>
      <point x="568" y="580"/>
      <point x="460" y="700"/>
      <point x="314" y="700" type="curve"/>
      <point x="183" y="700"/>
      <point x="75" y="603"/>
    </contour>
  </outline>
</glyph>
<glyph name="colon" format="1">
  <advance width="222"/>
  <unicode hex="003A"/>
  <outline>
    <contour>
      <point x="50" y="52" type="curve" smooth="yes"/>
      <point x="50" y="17"/>
      <point x="76" y="-10"/>
      <point x="111" y="-10" type="curve" smooth="yes"/>
      <point x="148" y="-10"/>
      <point x="172" y="17"/>
      <point x="172" y="52" type="curve" smooth="yes"/>
      <point x="172" y="88"/>
      <point x="148" y="115"/>
      <point x="111" y="115" type="curve" smooth="yes"/>
      <point x="76" y="115"/>
      <point x="50" y="88"/>
    </contour>
    <contour>
      <point x="50" y="462" type="curve" smooth="yes"/>
      <point x="50" y="427"/>
      <point x="76" y="400"/>
      <point x="111" y="400" type="curve" smooth="yes"/>
      <point x="148" y="400"/>
      <point x="172" y="427"/>
      <point x="172" y="462" type="curve" smooth="yes"/>
      <point x="172" y="498"/>
      <point x="148" y="525"/>
      <point x="111" y="525" type="curve" smooth="yes"/>
      <point x="76" y="525"/>
      <point x="50" y="498"/>
    </contour>
  </outline>
</glyph>
<glyph name="less" format="1">
  <advance width="640"/>
  <unicode hex="003C"/>
  <outline>
    <contour>
      <point x="92" y="254" type="line"/>
      <point x="517" y="55" type="line"/>
      <point x="517" y="148" type="line"/>
      <point x="174" y="305" type="line"/>
      <point x="92" y="307" type="line"/>
    </contour>
    <contour>
      <point x="92" y="281" type="line"/>
      <point x="174" y="280" type="line"/>
      <point x="517" y="435" type="line"/>
      <point x="517" y="525" type="line"/>
      <point x="92" y="326" type="line"/>
    </contour>
  </outline>
</glyph>
<glyph name="equal" format="1">
  <advance width="660"/>
  <unicode hex="003D"/>
  <outline>
    <contour>
      <point x="103" y="130" type="line"/>
      <point x="557" y="130" type="line"/>
      <point x="557" y="210" type="line"/>
      <point x="103" y="210" type="line"/>
    </contour>
    <contour>
      <point x="103" y="370" type="line"/>
      <point x="557" y="370" type="line"/>
      <point x="557" y="450" type="line"/>
      <point x="103" y="450" type="line"/>
    </contour>
  </outline>
</glyph>
<glyph name="greater" format="1">
  <advance width="600"/>
  <unicode hex="003E"/>
  <outline>
    <contour>
      <point x="103.0" y="55" type="line"/>
      <point x="528.0" y="254" type="line"/>
      <point x="528.0" y="299" type="line"/>
      <point x="446.0" y="300" type="line"/>
      <point x="103.0" y="145" type="line"/>
    </contour>
    <contour>
      <point x="103.0" y="432" type="line"/>
      <point x="446.0" y="275" type="line"/>
      <point x="528.0" y="273" type="line"/>
      <point x="528.0" y="326" type="line"/>
      <point x="103.0" y="525" type="line"/>
    </contour>
  </outline>
</glyph>
<glyph name="question" format="1">
  <advance width="508"/>
  <unicode hex="003F"/>
  <outline>
    <contour>
      <point x="25" y="588" type="curve"/>
      <point x="88" y="522" type="line"/>
      <point x="131" y="578"/>
      <point x="175" y="609"/>
      <point x="243" y="609" type="curve"/>
      <point x="305" y="609"/>
      <point x="349" y="567"/>
      <point x="349" y="510" type="curve"/>
      <point x="349" y="462"/>
      <point x="316" y="432"/>
      <point x="257" y="392" type="curve" smooth="yes"/>
      <point x="214" y="363"/>
      <point x="192" y="328"/>
      <point x="197" y="273" type="curve" smooth="yes"/>
      <point x="203" y="210" type="line"/>
      <point x="282" y="210" type="line"/>
      <point x="285" y="260" type="line" smooth="yes"/>
      <point x="288" y="304"/>
      <point x="297" y="320"/>
      <point x="336" y="343" type="curve" smooth="yes"/>
      <point x="402" y="382"/>
      <point x="448" y="439"/>
      <point x="448" y="510" type="curve"/>
      <point x="448" y="626"/>
      <point x="357" y="700"/>
      <point x="246" y="700" type="curve"/>
      <point x="152" y="700"/>
      <point x="84" y="659"/>
    </contour>
    <contour>
      <point x="182" y="52" type="curve" smooth="yes"/>
      <point x="182" y="17"/>
      <point x="208" y="-10"/>
      <point x="243" y="-10" type="curve" smooth="yes"/>
      <point x="280" y="-10"/>
      <point x="304" y="17"/>
      <point x="304" y="52" type="curve" smooth="yes"/>
      <point x="304" y="88"/>
      <point x="280" y="115"/>
      <point x="243" y="115" type="curve" smooth="yes"/>
      <point x="208" y="115"/>
      <point x="182" y="88"/>
    </contour>
  </outline>
</glyph>
<glyph name="at" format="1">
  <advance width="982"/>
  <unicode hex="0040"/>
  <outline>
    <contour>
      <point x="65" y="252" type="curve"/>
      <point x="65" y="-15"/>
      <point x="227" y="-195"/>
      <point x="506" y="-195" type="curve"/>
      <point x="599" y="-195"/>
      <point x="695" y="-171"/>
      <point x="758" y="-138" type="curve"/>
      <point x="727" y="-66" type="line"/>
      <point x="656" y="-99"/>
      <point x="587" y="-119"/>
      <point x="506" y="-119" type="curve"/>
      <point x="275" y="-119"/>
      <point x="147" y="35"/>
      <point x="147" y="249" type="curve"/>
      <point x="147" y="476"/>
      <point x="292" y="624"/>
      <point x="502" y="624" type="curve"/>
      <point x="718" y="624"/>
      <point x="835" y="466"/>
      <point x="835" y="259" type="curve"/>
      <point x="835" y="121"/>
      <point x="793" y="66"/>
      <point x="739" y="66" type="curve"/>
      <point x="708" y="66"/>
      <point x="684" y="86"/>
      <point x="684" y="133" type="curve"/>
      <point x="684" y="373" type="line" smooth="yes"/>
      <point x="684" y="401"/>
      <point x="686" y="422"/>
      <point x="691" y="451" type="curve"/>
      <point x="699" y="495" type="line"/>
      <point x="613" y="495" type="line"/>
      <point x="592" y="395" type="line"/>
      <point x="592" y="152" type="line"/>
      <point x="593" y="115" type="line"/>
      <point x="607" y="24"/>
      <point x="671" y="-10"/>
      <point x="735" y="-10" type="curve"/>
      <point x="823" y="-10"/>
      <point x="917" y="56"/>
      <point x="917" y="259" type="curve"/>
      <point x="917" y="513"/>
      <point x="759" y="700"/>
      <point x="502" y="700" type="curve"/>
      <point x="249" y="700"/>
      <point x="65" y="516"/>
    </contour>
    <contour>
      <point x="263" y="253" type="curve" smooth="yes"/>
      <point x="263" y="101"/>
      <point x="345" y="10"/>
      <point x="445" y="10" type="curve" smooth="yes"/>
      <point x="507" y="10"/>
      <point x="566" y="49"/>
      <point x="607" y="105" type="curve"/>
      <point x="607" y="174" type="line"/>
      <point x="566" y="125"/>
      <point x="517" y="95"/>
      <point x="470" y="95" type="curve" smooth="yes"/>
      <point x="406" y="95"/>
      <point x="357" y="152"/>
      <point x="357" y="256" type="curve" smooth="yes"/>
      <point x="357" y="357"/>
      <point x="404" y="428"/>
      <point x="481" y="428" type="curve" smooth="yes"/>
      <point x="536" y="428"/>
      <point x="592" y="378"/>
      <point x="592" y="263" type="curve"/>
      <point x="632" y="273" type="line"/>
      <point x="632" y="441"/>
      <point x="547" y="505"/>
      <point x="466" y="505" type="curve" smooth="yes"/>
      <point x="343" y="505"/>
      <point x="263" y="411"/>
    </contour>
  </outline>
</glyph>
<glyph name="A" format="1">
  <advance width="656"/>
  <unicode hex="0041"/>
  <outline>
    <contour>
      <point x="20" y="0" type="line"/>
      <point x="120" y="0" type="line"/>
      <point x="343" y="600" type="line"/>
      <point x="335" y="690" type="line"/>
      <point x="288" y="690" type="line"/>
    </contour>
    <contour>
      <point x="150" y="194" type="line"/>
      <point x="506" y="194" type="line"/>
      <point x="506" y="280" type="line"/>
      <point x="150" y="280" type="line"/>
    </contour>
    <contour>
      <point x="309" y="600" type="line"/>
      <point x="532" y="0" type="line"/>
      <point x="636" y="0" type="line"/>
      <point x="368" y="690" type="line"/>
      <point x="313" y="690" type="line"/>
    </contour>
    <contour>
      <point x="328" y="690" type="move" name="top"/>
    </contour>
    <contour>
      <point x="328" y="0" type="move" name="bottom"/>
    </contour>
  </outline>
</glyph>
<glyph name="B" format="1">
  <advance width="657"/>
  <unicode hex="0042"/>
  <outline>
    <contour>
      <point x="100" y="0" type="line"/>
      <point x="196" y="0" type="line"/>
      <point x="196" y="690" type="line"/>
      <point x="100" y="690" type="line"/>
    </contour>
    <contour>
      <point x="150" y="0" type="line"/>
      <point x="358" y="0" type="line" smooth="yes"/>
      <point x="484" y="0"/>
      <point x="587" y="68"/>
      <point x="587" y="195" type="curve" smooth="yes"/>
      <point x="587" y="315"/>
      <point x="484" y="380"/>
      <point x="358" y="380" type="curve" smooth="yes"/>
      <point x="150" y="380" type="line"/>
      <point x="150" y="314" type="line"/>
      <point x="353" y="314" type="line" smooth="yes"/>
      <point x="430" y="314"/>
      <point x="488" y="273"/>
      <point x="488" y="200" type="curve" smooth="yes"/>
      <point x="488" y="126"/>
      <point x="429" y="84"/>
      <point x="353" y="84" type="curve" smooth="yes"/>
      <point x="150" y="84" type="line"/>
    </contour>
    <contour>
      <point x="150" y="335" type="line"/>
      <point x="340" y="335" type="line"/>
      <point x="461" y="335"/>
      <point x="559" y="395"/>
      <point x="559" y="505" type="curve" smooth="yes"/>
      <point x="559" y="625"/>
      <point x="461" y="690"/>
      <point x="340" y="690" type="curve" smooth="yes"/>
      <point x="150" y="690" type="line"/>
      <point x="150" y="606" type="line"/>
      <point x="335" y="606" type="line" smooth="yes"/>
      <point x="407" y="606"/>
      <point x="460" y="567"/>
      <point x="460" y="500" type="curve" smooth="yes"/>
      <point x="460" y="433"/>
      <point x="406" y="396"/>
      <point x="335" y="396" type="curve" smooth="yes"/>
      <point x="150" y="396" type="line"/>
    </contour>
  </outline>
</glyph>
<glyph name="C" format="1">
  <advance width="644"/>
  <unicode hex="0043"/>
  <outline>
    <contour>
      <point x="60" y="345" type="curve" smooth="yes"/>
      <point x="60" y="116"/>
      <point x="202" y="-10"/>
      <point x="373" y="-10" type="curve" smooth="yes"/>
      <point x="460" y="-10"/>
      <point x="534" y="23"/>
      <point x="594" y="84" type="curve"/>
      <point x="529" y="149" type="line"/>
      <point x="488" y="103"/>
      <point x="435" y="81"/>
      <point x="373" y="81" type="curve" smooth="yes"/>
      <point x="250" y="81"/>
      <point x="159" y="172"/>
      <point x="159" y="345" type="curve" smooth="yes"/>
      <point x="159" y="517"/>
      <point x="250" y="609"/>
      <point x="373" y="609" type="curve" smooth="yes"/>
      <point x="428" y="609"/>
      <point x="477" y="586"/>
      <point x="518" y="543" type="curve"/>
      <point x="586" y="608" type="line"/>
      <point x="526" y="666"/>
      <point x="453" y="700"/>
      <point x="373" y="700" type="curve" smooth="yes"/>
      <point x="202" y="700"/>
      <point x="60" y="573"/>
    </contour>
    <contour>
      <point x="363" y="690" type="move" name="top"/>
    </contour>
    <contour>
      <point x="363" y="0" type="move" name="bottom"/>
    </contour>
  </outline>
</glyph>
<glyph name="F" format="1">
  <advance width="581"/>
  <unicode hex="0046"/>
  <outline>
    <contour>
      <point x="100" y="0" type="line"/>
      <point x="196" y="0" type="line"/>
      <point x="196" y="690" type="line"/>
      <point x="100" y="690" type="line"/>
    </contour>
    <contour>
      <point x="150" y="284" type="line"/>
      <point x="492" y="284" type="line"/>
      <point x="492" y="370" type="line"/>
      <point x="150" y="370" type="line"/>
    </contour>
    <contour>
      <point x="150" y="604" type="line"/>
      <point x="531" y="604" type="line"/>
      <point x="531" y="690" type="line"/>
      <point x="150" y="690" type="line"/>
    </contour>
  </outline>
</glyph>
<glyph name="G" format="1">
  <advance width="701"/>
  <unicode hex="0047"/>
  <outline>
    <contour>
      <point x="60" y="345" type="curve" smooth="yes"/>
      <point x="60" y="116"/>
      <point x="200" y="-10"/>
      <point x="378" y="-10" type="curve" smooth="yes"/>
      <point x="473" y="-10"/>
      <point x="560.25" y="27.999999999999993"/>
      <point x="621" y="82" type="curve"/>
      <point x="542" y="126" type="line"/>
      <point x="495.5189873417722" y="91.0"/>
      <point x="446.13291139240505" y="76.0"/>
      <point x="389" y="76" type="curve" smooth="yes"/>
      <point x="257" y="76"/>
      <point x="159" y="172"/>
      <point x="159" y="345" type="curve" smooth="yes"/>
      <point x="159" y="518"/>
      <point x="254.25233644859816" y="609.0"/>
      <point x="383" y="609" type="curve" smooth="yes"/>
      <point x="442.0" y="609.0"/>
      <point x="494" y="586"/>
      <point x="538" y="543" type="curve"/>
      <point x="600" y="614" type="line"/>
      <point x="537" y="672"/>
      <point x="465" y="700"/>
      <point x="383" y="700" type="curve" smooth="yes"/>
      <point x="207" y="700"/>
      <point x="60" y="574"/>
    </contour>
    <contour>
      <point x="375" y="257" type="line"/>
      <point x="571" y="257" type="line"/>
      <point x="571" y="343" type="line"/>
      <point x="375" y="343" type="line"/>
    </contour>
    <contour>
      <point x="525" y="70" type="line"/>
      <point x="621" y="82" type="line"/>
      <point x="621" y="343" type="line"/>
      <point x="525" y="343" type="line"/>
    </contour>
    <contour>
      <point x="363" y="690" type="move" name="top"/>
    </contour>
    <contour>
      <point x="378" y="0" type="move" name="bottom"/>
    </contour>
  </outline>
</glyph>
<glyph name="I" format="1">
  <advance width="436"/>
  <unicode hex="0049"/>
  <outline>
    <contour>
      <point x="70" y="0" type="line"/>
      <point x="366" y="0" type="line"/>
      <point x="366" y="81" type="line"/>
      <point x="70" y="81" type="line"/>
    </contour>
    <contour>
      <point x="70" y="609" type="line"/>
      <point x="366" y="609" type="line"/>
      <point x="366" y="690" type="line"/>
      <point x="70" y="690" type="line"/>
    </contour>
    <contour>
      <point x="170" y="0" type="line"/>
      <point x="266" y="0" type="line"/>
      <point x="266" y="690" type="line"/>
      <point x="170" y="690" type="line"/>
    </contour>
    <contour>
      <point x="218" y="690" type="move" name="top"/>
    </contour>
    <contour>
      <point x="218" y="0" type="move" name="bottom"/>
    </contour>
    <contour>
      <point x="186" y="0" type="move" name="ogonek"/>
    </contour>
  </outline>
</glyph>
<glyph name="J" format="1">
  <advance width="573"/>
  <unicode hex="004A"/>
  <outline>
    <contour>
      <point x="45" y="107" type="line"/>
      <point x="86" y="39"/>
      <point x="168" y="-10"/>
      <point x="255" y="-10" type="curve" smooth="yes"/>
      <point x="382" y="-10"/>
      <point x="483" y="75"/>
      <point x="483" y="236" type="curve" smooth="yes"/>
      <point x="483" y="690" type="line"/>
      <point x="389" y="690" type="line"/>
      <point x="389" y="246" type="line" smooth="yes"/>
      <point x="389" y="130"/>
      <point x="337" y="78"/>
      <point x="254" y="78" type="curve" smooth="yes"/>
      <point x="187" y="78"/>
      <point x="140" y="119"/>
      <point x="116" y="163" type="curve"/>
    </contour>
    <contour>
      <point x="207" y="609" type="line"/>
      <point x="443" y="609" type="line"/>
      <point x="443" y="690" type="line"/>
      <point x="207" y="690" type="line"/>
    </contour>
    <contour>
      <point x="345" y="690" type="move" name="top"/>
    </contour>
  </outline>
</glyph>
<glyph name="L" format="1">
  <advance width="556"/>
  <unicode hex="004C"/>
  <outline>
    <contour>
      <point x="100" y="0" type="line"/>
      <point x="196" y="0" type="line"/>
      <point x="196" y="690" type="line"/>
      <point x="100" y="690" type="line"/>
    </contour>
    <contour>
      <point x="150" y="0" type="line"/>
      <point x="516" y="0" type="line"/>
      <point x="516" y="86" type="line"/>
      <point x="150" y="86" type="line"/>
    </contour>
    <contour>
      <point x="148" y="690" type="move" name="top"/>
    </contour>
    <contour>
      <point x="356" y="680" type="move" name="caron.alt"/>
    </contour>
    <contour>
      <point x="280" y="0" type="move" name="bottom"/>
    </contour>
  </outline>
</glyph>
<glyph name="M" format="1">
  <advance width="836"/>
  <unicode hex="004D"/>
  <outline>
    <contour>
      <point x="100" y="0" type="line"/>
      <point x="196" y="0" type="line"/>
      <point x="196" y="690" type="line"/>
      <point x="100" y="690" type="line"/>
    </contour>
    <contour>
      <point x="143" y="690" type="line"/>
      <point x="388" y="155" type="line"/>
      <point x="430" y="155" type="line"/>
      <point x="436" y="250" type="line"/>
      <point x="241" y="690" type="line"/>
    </contour>
    <contour>
      <point x="406" y="155" type="line"/>
      <point x="448" y="155" type="line"/>
      <point x="693" y="690" type="line"/>
      <point x="595" y="690" type="line"/>
      <point x="400" y="250" type="line"/>
    </contour>
    <contour>
      <point x="640" y="0" type="line"/>
      <point x="736" y="0" type="line"/>
      <point x="736" y="690" type="line"/>
      <point x="640" y="690" type="line"/>
    </contour>
  </outline>
</glyph>
<glyph name="P" format="1">
  <advance width="632"/>
  <unicode hex="0050"/>
  <outline>
    <contour>
      <point x="100" y="0" type="line"/>
      <point x="196" y="0" type="line"/>
      <point x="196" y="690" type="line"/>
      <point x="100" y="690" type="line"/>
    </contour>
    <contour>
      <point x="150" y="230" type="line"/>
      <point x="328" y="230" type="line" smooth="yes"/>
      <point x="469" y="230"/>
      <point x="582" y="311"/>
      <point x="582" y="460" type="curve" smooth="yes"/>
      <point x="582" y="609"/>
      <point x="469" y="690"/>
      <point x="328" y="690" type="curve" smooth="yes"/>
      <point x="150" y="690" type="line"/>
      <point x="150" y="604" type="line"/>
      <point x="323" y="604" type="line" smooth="yes"/>
      <point x="415" y="604"/>
      <point x="483" y="553"/>
      <point x="483" y="460" type="curve" smooth="yes"/>
      <point x="483" y="367"/>
      <point x="414" y="316"/>
      <point x="323" y="316" type="curve" smooth="yes"/>
      <point x="150" y="316" type="line"/>
    </contour>
  </outline>
</glyph>
<glyph name="Q" format="1">
  <advance width="726"/>
  <unicode hex="0051"/>
  <outline>
    <contour>
      <point x="420" y="9" type="line"/>
      <point x="445" y="-108"/>
      <point x="520" y="-161"/>
      <point x="656" y="-165" type="curve"/>
      <point x="656" y="-71" type="line"/>
      <point x="573" y="-71"/>
      <point x="523" y="-44"/>
      <point x="496" y="36" type="curve"/>
    </contour>
    <contour>
      <point x="60" y="345" type="curve" smooth="yes"/>
      <point x="60" y="112"/>
      <point x="197" y="-10"/>
      <point x="363" y="-10" type="curve" smooth="yes"/>
      <point x="529" y="-10"/>
      <point x="666" y="112"/>
      <point x="666" y="345" type="curve" smooth="yes"/>
      <point x="666" y="578"/>
      <point x="529" y="700"/>
      <point x="363" y="700" type="curve" smooth="yes"/>
      <point x="197" y="700"/>
      <point x="60" y="578"/>
    </contour>
    <contour>
      <point x="159" y="345" type="curve" smooth="yes"/>
      <point x="159" y="522"/>
      <point x="246" y="611"/>
      <point x="363" y="611" type="curve" smooth="yes"/>
      <point x="480" y="611"/>
      <point x="567" y="522"/>
      <point x="567" y="345" type="curve" smooth="yes"/>
      <point x="567" y="168"/>
      <point x="480" y="79"/>
      <point x="363" y="79" type="curve" smooth="yes"/>
      <point x="246" y="79"/>
      <point x="159" y="168"/>
    </contour>
  </outline>
</glyph>
<glyph name="T" format="1">
  <advance width="576"/>
  <unicode hex="0054"/>
  <outline>
    <contour>
      <point x="30" y="604" type="line"/>
      <point x="546" y="604" type="line"/>
      <point x="546" y="690" type="line"/>
      <point x="30" y="690" type="line"/>
    </contour>
    <contour>
      <point x="240" y="0" type="line"/>
      <point x="336" y="0" type="line"/>
      <point x="336" y="690" type="line"/>
      <point x="240" y="690" type="line"/>
    </contour>
    <contour>
      <point x="288" y="690" type="move" name="top"/>
    </contour>
    <contour>
      <point x="288" y="0" type="move" name="bottom"/>
    </contour>
  </outline>
</glyph>
<glyph name="U" format="1">
  <advance width="706"/>
  <unicode hex="0055"/>
  <outline>
    <contour>
      <point x="90" y="250" type="line" smooth="yes"/>
      <point x="90" y="83"/>
      <point x="204" y="-10"/>
      <point x="353" y="-10" type="curve" smooth="yes"/>
      <point x="502" y="-10"/>
      <point x="616" y="83"/>
      <point x="616" y="250" type="curve" smooth="yes"/>
      <point x="616" y="690" type="line"/>
      <point x="522" y="690" type="line"/>
      <point x="522" y="260" type="line" smooth="yes"/>
      <point x="522" y="143"/>
      <point x="456" y="79"/>
      <point x="354" y="79" type="curve" smooth="yes"/>
      <point x="252" y="79"/>
      <point x="186" y="143"/>
      <point x="186" y="260" type="curve" smooth="yes"/>
      <point x="186" y="690" type="line"/>
      <point x="90" y="690" type="line"/>
    </contour>
    <contour>
      <point x="353" y="690" type="move" name="top"/>
    </contour>
    <contour>
      <point x="353" y="0" type="move" name="bottom"/>
    </contour>
    <contour>
      <point x="380" y="0" type="move" name="ogonek"/>
    </contour>
  </outline>
</glyph>
<glyph name="W" format="1">
  <advance width="961"/>
  <unicode hex="0057"/>
  <outline>
    <contour>
      <point x="20" y="690" type="line"/>
      <point x="238" y="0" type="line"/>
      <point x="293" y="0" type="line"/>
      <point x="297" y="96" type="line"/>
      <point x="122" y="690" type="line"/>
    </contour>
    <contour>
      <point x="263" y="96" type="line"/>
      <point x="271" y="0" type="line"/>
      <point x="318" y="0" type="line"/>
      <point x="494" y="562" type="line"/>
      <point x="494" y="690" type="line"/>
      <point x="442" y="690" type="line"/>
    </contour>
    <contour>
      <point x="468" y="562" type="line"/>
      <point x="644" y="0" type="line"/>
      <point x="699" y="0" type="line"/>
      <point x="703" y="96" type="line"/>
      <point x="523" y="690" type="line"/>
      <point x="468" y="690" type="line"/>
    </contour>
    <contour>
      <point x="669" y="96" type="line"/>
      <point x="677" y="0" type="line"/>
      <point x="724" y="0" type="line"/>
      <point x="941" y="690" type="line"/>
      <point x="843" y="690" type="line"/>
    </contour>
  </outline>
</glyph>
<glyph name="X" format="1">
  <advance width="644.0"/>
  <unicode hex="0058"/>
  <outline>
    <contour>
      <point x="30" y="0" type="line"/>
      <point x="140" y="0" type="line"/>
      <point x="333" y="296" type="line"/>
      <point x="362" y="331" type="line"/>
      <point x="604" y="690" type="line"/>
      <point x="494" y="690" type="line"/>
      <point x="311" y="409" type="line"/>
      <point x="282" y="374" type="line"/>
    </contour>
    <contour>
      <point x="40" y="690" type="line"/>
      <point x="292" y="310" type="line"/>
      <point x="498" y="0" type="line"/>
      <point x="614" y="0" type="line"/>
      <point x="353" y="394" type="line"/>
      <point x="156" y="690" type="line"/>
    </contour>
  </outline>
</glyph>
<glyph name="Y" format="1">
  <advance width="616"/>
  <unicode hex="0059"/>
  <outline>
    <contour>
      <point x="15" y="690" type="line"/>
      <point x="268" y="270" type="line"/>
      <point x="329" y="270" type="line"/>
      <point x="329" y="341" type="line"/>
      <point x="125" y="690" type="line"/>
    </contour>
    <contour>
      <point x="260" y="0" type="line"/>
      <point x="356" y="0" type="line"/>
      <point x="356" y="320" type="line"/>
      <point x="260" y="320" type="line"/>
    </contour>
    <contour>
      <point x="291" y="341" type="line"/>
      <point x="291" y="270" type="line"/>
      <point x="348" y="270" type="line"/>
      <point x="601" y="690" type="line"/>
      <point x="495" y="690" type="line"/>
    </contour>
    <contour>
      <point x="310.0" y="690.0" type="move" name="top"/>
    </contour>
  </outline>
</glyph>
<glyph name="Z" format="1">
  <advance width="614"/>
  <unicode hex="005A"/>
  <outline>
    <contour>
      <point x="60" y="66" type="line"/>
      <point x="132" y="0" type="line"/>
      <point x="544" y="624" type="line"/>
      <point x="472" y="690" type="line"/>
    </contour>
    <contour>
      <point x="60" y="0" type="line"/>
      <point x="554" y="0" type="line"/>
      <point x="554" y="86" type="line"/>
      <point x="106" y="86" type="line"/>
      <point x="60" y="66" type="line"/>
    </contour>
    <contour>
      <point x="70" y="604" type="line"/>
      <point x="495" y="604" type="line"/>
      <point x="544" y="624" type="line"/>
      <point x="544" y="690" type="line"/>
      <point x="70" y="690" type="line"/>
    </contour>
  </outline>
</glyph>
<glyph name="asciicircum" format="1">
  <advance width="600"/>
  <unicode hex="005E"/>
  <outline>
    <contour>
      <point x="65.0" y="265" type="line"/>
      <point x="155.0" y="265" type="line"/>
      <point x="310.0" y="608" type="line"/>
      <point x="309.0" y="690" type="line"/>
      <point x="264.0" y="690" type="line"/>
    </contour>
    <contour>
      <point x="283" y="690" type="line"/>
      <point x="285" y="608" type="line"/>
      <point x="442" y="265" type="line"/>
      <point x="535" y="265" type="line"/>
      <point x="336" y="690" type="line"/>
    </contour>
  </outline>
</glyph>
<glyph name="underscore" format="1">
  <advance width="428"/>
  <unicode hex="005F"/>
  <outline>
    <contour>
      <point x="0" y="-80" type="line"/>
      <point x="428" y="-80" type="line"/>
      <point x="428" y="0" type="line"/>
      <point x="0" y="0" type="line"/>
    </contour>
  </outline>
</glyph>
<glyph name="a" format="1">
  <advance width="543"/>
  <unicode hex="0061"/>
  <outline>
    <contour>
      <point x="60" y="132" type="curve"/>
      <point x="60" y="44"/>
      <point x="127" y="-10"/>
      <point x="202" y="-10" type="curve"/>
      <point x="276" y="-10"/>
      <point x="342" y="31"/>
      <point x="381" y="85" type="curve"/>
      <point x="381" y="157" type="line"/>
      <point x="334" y="105"/>
      <point x="279" y="74"/>
      <point x="222" y="74" type="curve"/>
      <point x="181" y="74"/>
      <point x="154" y="98"/>
      <point x="154" y="140" type="curve"/>
      <point x="154" y="183"/>
      <point x="185" y="224"/>
      <point x="315" y="237" type="curve" smooth="yes"/>
      <point x="374" y="243" type="line"/>
      <point x="374" y="308" type="line"/>
      <point x="311" y="306" type="line" smooth="yes"/>
      <point x="124" y="300"/>
      <point x="60" y="221"/>
    </contour>
    <contour>
      <point x="75" y="472" type="curve"/>
      <point x="107" y="394" type="line"/>
      <point x="152" y="419"/>
      <point x="196" y="437"/>
      <point x="249" y="437" type="curve"/>
      <point x="322" y="437"/>
      <point x="366" y="402"/>
      <point x="366" y="314" type="curve" smooth="yes"/>
      <point x="366" y="132" type="line"/>
      <point x="367" y="95" type="line"/>
      <point x="387" y="0" type="line"/>
      <point x="473" y="0" type="line"/>
      <point x="465" y="44" type="line" smooth="yes"/>
      <point x="460" y="73"/>
      <point x="458" y="94"/>
      <point x="458" y="122" type="curve" smooth="yes"/>
      <point x="458" y="325" type="line" smooth="yes"/>
      <point x="458" y="459"/>
      <point x="371" y="525"/>
      <point x="258" y="525" type="curve"/>
      <point x="197" y="525"/>
      <point x="122" y="501"/>
    </contour>
    <contour>
      <point x="265" y="515" type="move" name="top"/>
    </contour>
  </outline>
</glyph>
<glyph name="b" format="1">
  <advance width="586"/>
  <unicode hex="0062"/>
  <outline>
    <contour>
      <point x="75" y="0" type="line"/>
      <point x="161" y="0" type="line"/>
      <point x="181" y="95" type="line"/>
      <point x="182" y="132" type="line"/>
      <point x="182" y="735" type="line"/>
      <point x="90" y="715" type="line"/>
      <point x="90" y="122" type="line"/>
      <point x="90" y="94"/>
      <point x="88" y="73"/>
      <point x="83" y="44" type="curve" smooth="yes"/>
    </contour>
    <contour>
      <point x="142" y="222" type="line"/>
      <point x="142" y="54"/>
      <point x="232" y="-10"/>
      <point x="318" y="-10" type="curve"/>
      <point x="447" y="-10"/>
      <point x="531" y="92"/>
      <point x="531" y="262" type="curve" smooth="yes"/>
      <point x="531" y="426"/>
      <point x="444" y="525"/>
      <point x="339" y="525" type="curve" smooth="yes"/>
      <point x="273" y="525"/>
      <point x="211" y="486"/>
      <point x="167" y="430" type="curve"/>
      <point x="167" y="361" type="line"/>
      <point x="211" y="410"/>
      <point x="264" y="440"/>
      <point x="314" y="440" type="curve" smooth="yes"/>
      <point x="384" y="440"/>
      <point x="437" y="376"/>
      <point x="437" y="259" type="curve" smooth="yes"/>
      <point x="437" y="146"/>
      <point x="386" y="67"/>
      <point x="303" y="67" type="curve"/>
      <point x="243" y="67"/>
      <point x="182" y="117"/>
      <point x="182" y="232" type="curve"/>
    </contour>
  </outline>
</glyph>
<glyph name="c" format="1">
  <advance width="504"/>
  <unicode hex="0063"/>
  <outline>
    <contour>
      <point x="55" y="252" type="curve" smooth="yes"/>
      <point x="55" y="77"/>
      <point x="161" y="-10"/>
      <point x="301" y="-10" type="curve" smooth="yes"/>
      <point x="365" y="-10"/>
      <point x="429" y="13"/>
      <point x="469" y="55" type="curve"/>
      <point x="416" y="122" type="line"/>
      <point x="389" y="94"/>
      <point x="349" y="74"/>
      <point x="297" y="74" type="curve" smooth="yes"/>
      <point x="218" y="74"/>
      <point x="149" y="132"/>
      <point x="149" y="252" type="curve" smooth="yes"/>
      <point x="149" y="372"/>
      <point x="220" y="441"/>
      <point x="302" y="441" type="curve" smooth="yes"/>
      <point x="349" y="441"/>
      <point x="386" y="422"/>
      <point x="411" y="393" type="curve"/>
      <point x="467" y="460" type="line"/>
      <point x="427" y="502"/>
      <point x="365" y="525"/>
      <point x="306" y="525" type="curve" smooth="yes"/>
      <point x="166" y="525"/>
      <point x="55" y="421"/>
    </contour>
    <contour>
      <point x="286" y="515" type="move" name="top"/>
    </contour>
    <contour>
      <point x="286" y="0" type="move" name="bottom"/>
    </contour>
  </outline>
</glyph>
<glyph name="d" format="1">
  <advance width="586"/>
  <unicode hex="0064"/>
  <outline>
    <contour>
      <point x="55" y="253" type="curve" smooth="yes"/>
      <point x="55" y="89"/>
      <point x="142" y="-10"/>
      <point x="247" y="-10" type="curve" smooth="yes"/>
      <point x="313" y="-10"/>
      <point x="375" y="29"/>
      <point x="419" y="85" type="curve"/>
      <point x="419" y="157" type="line"/>
      <point x="375" y="107"/>
      <point x="325" y="75"/>
      <point x="272" y="75" type="curve" smooth="yes"/>
      <point x="202" y="75"/>
      <point x="149" y="139"/>
      <point x="149" y="256" type="curve" smooth="yes"/>
      <point x="149" y="369"/>
      <point x="200" y="448"/>
      <point x="283" y="448" type="curve"/>
      <point x="343" y="448"/>
      <point x="404" y="398"/>
      <point x="404" y="283" type="curve"/>
      <point x="444" y="293" type="line"/>
      <point x="444" y="461"/>
      <point x="354" y="525"/>
      <point x="267" y="525" type="curve"/>
      <point x="139" y="525"/>
      <point x="55" y="423"/>
    </contour>
    <contour>
      <point x="425" y="0" type="line"/>
      <point x="511" y="0" type="line"/>
      <point x="503" y="44" type="line" smooth="yes"/>
      <point x="498" y="73"/>
      <point x="496" y="94"/>
      <point x="496" y="122" type="curve" smooth="yes"/>
      <point x="496" y="735" type="line"/>
      <point x="404" y="715" type="line"/>
      <point x="404" y="132" type="line"/>
      <point x="405" y="95" type="line"/>
    </contour>
    <contour>
      <point x="586" y="720" type="move" name="caron.alt"/>
    </contour>
  </outline>
</glyph>
<glyph name="e" format="1">
  <advance width="553"/>
  <unicode hex="0065"/>
  <outline>
    <contour>
      <point x="55" y="252" type="curve" smooth="yes"/>
      <point x="55" y="77"/>
      <point x="162" y="-10"/>
      <point x="306" y="-10" type="curve" smooth="yes"/>
      <point x="367" y="-10"/>
      <point x="425" y="6"/>
      <point x="471" y="43" type="curve"/>
      <point x="428" y="116" type="line"/>
      <point x="397" y="92"/>
      <point x="357" y="74"/>
      <point x="309" y="74" type="curve" smooth="yes"/>
      <point x="219" y="74"/>
      <point x="149" y="134"/>
      <point x="149" y="252" type="curve" smooth="yes"/>
      <point x="149" y="379"/>
      <point x="204" y="444"/>
      <point x="284" y="444" type="curve" smooth="yes"/>
      <point x="352" y="444"/>
      <point x="408" y="395"/>
      <point x="408" y="267" type="curve"/>
      <point x="426" y="304" type="line"/>
      <point x="134" y="304" type="line"/>
      <point x="134" y="230" type="line"/>
      <point x="496" y="230" type="line"/>
      <point x="497" y="242"/>
      <point x="498" y="255"/>
      <point x="498" y="267" type="curve" smooth="yes"/>
      <point x="498" y="439"/>
      <point x="403" y="525"/>
      <point x="285" y="525" type="curve" smooth="yes"/>
      <point x="157" y="525"/>
      <point x="55" y="432"/>
    </contour>
    <contour>
      <point x="285" y="515" type="move" name="top"/>
    </contour>
    <contour>
      <point x="350" y="0" type="move" name="ogonek"/>
    </contour>
  </outline>
</glyph>
<glyph name="g" format="1">
  <advance width="586"/>
  <unicode hex="0067"/>
  <outline>
    <contour>
      <point x="55" y="263" type="curve" smooth="yes"/>
      <point x="55.0" y="105.0"/>
      <point x="142.0" y="10.0"/>
      <point x="247" y="10" type="curve" smooth="yes"/>
      <point x="313.0" y="10.0"/>
      <point x="375.0" y="47.0"/>
      <point x="419" y="100" type="curve"/>
      <point x="419" y="169" type="line"/>
      <point x="375.0" y="123.0"/>
      <point x="322.0" y="95.0"/>
      <point x="272" y="95" type="curve" smooth="yes"/>
      <point x="202.0" y="95.0"/>
      <point x="149.0" y="155.0"/>
      <point x="149" y="266" type="curve" smooth="yes"/>
      <point x="149.0" y="373.1145833333333"/>
      <point x="200.0" y="448.0"/>
      <point x="283" y="448" type="curve" smooth="yes"/>
      <point x="343" y="448"/>
      <point x="404" y="398"/>
      <point x="404" y="283" type="curve"/>
      <point x="444" y="293" type="line"/>
      <point x="444" y="461"/>
      <point x="354" y="525"/>
      <point x="268" y="525" type="curve" smooth="yes"/>
      <point x="139.0" y="525.0"/>
      <point x="55.0" y="426.75"/>
    </contour>
    <contour>
      <point x="79" y="-145" type="line"/>
      <point x="126" y="-172"/>
      <point x="200" y="-195"/>
      <point x="265" y="-195" type="curve"/>
      <point x="397" y="-195"/>
      <point x="496" y="-108"/>
      <point x="496" y="46" type="curve" smooth="yes"/>
      <point x="496" y="393" type="line"/>
      <point x="496" y="421"/>
      <point x="498" y="442"/>
      <point x="503" y="471" type="curve" smooth="yes"/>
      <point x="511" y="515" type="line"/>
      <point x="425" y="515" type="line"/>
      <point x="405" y="420" type="line"/>
      <point x="404" y="383" type="line"/>
      <point x="404" y="49" type="line" smooth="yes"/>
      <point x="404" y="-60"/>
      <point x="346" y="-109"/>
      <point x="261" y="-109" type="curve"/>
      <point x="200" y="-109"/>
      <point x="158" y="-90"/>
      <point x="112" y="-64" type="curve"/>
    </contour>
    <contour>
      <point x="286" y="515" type="move" name="top"/>
    </contour>
  </outline>
</glyph>
<glyph name="i" format="1">
  <advance width="272"/>
  <unicode hex="0069"/>
  <outline>
    <contour>
      <point x="90" y="0" type="line"/>
      <point x="182" y="0" type="line"/>
      <point x="182" y="515" type="line"/>
      <point x="90" y="515" type="line"/>
    </contour>
    <contour>
      <point x="75" y="667" type="curve" smooth="yes"/>
      <point x="75" y="632"/>
      <point x="101" y="605"/>
      <point x="136" y="605" type="curve" smooth="yes"/>
      <point x="173" y="605"/>
      <point x="197" y="632"/>
      <point x="197" y="667" type="curve" smooth="yes"/>
      <point x="197" y="703"/>
      <point x="173" y="730"/>
      <point x="136" y="730" type="curve" smooth="yes"/>
      <point x="101" y="730"/>
      <point x="75" y="703"/>
    </contour>
    <contour>
      <point x="136" y="0" type="move" name="bottom"/>
    </contour>
    <contour>
      <point x="90" y="0" type="move" name="ogonek"/>
    </contour>
  </outline>
</glyph>
<glyph name="n" format="1">
  <advance width="604"/>
  <unicode hex="006E"/>
  <outline>
    <contour>
      <point x="75" y="515" type="line"/>
      <point x="83" y="471" type="line" smooth="yes"/>
      <point x="88" y="442"/>
      <point x="90" y="421"/>
      <point x="90" y="393" type="curve" smooth="yes"/>
      <point x="90" y="0" type="line"/>
      <point x="182" y="0" type="line"/>
      <point x="182" y="383" type="line"/>
      <point x="181" y="420" type="line"/>
      <point x="161" y="515" type="line"/>
    </contour>
    <contour>
      <point x="167" y="358" type="line"/>
      <point x="211" y="408"/>
      <point x="263" y="438"/>
      <point x="316" y="438" type="curve"/>
      <point x="380" y="438"/>
      <point x="427" y="397"/>
      <point x="427" y="304" type="curve" smooth="yes"/>
      <point x="427" y="0" type="line"/>
      <point x="519" y="0" type="line"/>
      <point x="519" y="316" type="line" smooth="yes"/>
      <point x="519" y="457"/>
      <point x="442" y="525"/>
      <point x="340" y="525" type="curve"/>
      <point x="273" y="525"/>
      <point x="211" y="486"/>
      <point x="167" y="430" type="curve"/>
    </contour>
    <contour>
      <point x="314" y="515" type="move" name="top"/>
    </contour>
  </outline>
</glyph>
<glyph name="o" format="1">
  <advance width="572"/>
  <unicode hex="006F"/>
  <outline>
    <contour>
      <point x="55" y="257" type="curve" smooth="yes"/>
      <point x="55" y="84"/>
      <point x="152" y="-10"/>
      <point x="286" y="-10" type="curve" smooth="yes"/>
      <point x="420" y="-10"/>
      <point x="517" y="84"/>
      <point x="517" y="257" type="curve" smooth="yes"/>
      <point x="517" y="430"/>
      <point x="420" y="525"/>
      <point x="286" y="525" type="curve" smooth="yes"/>
      <point x="152" y="525"/>
      <point x="55" y="430"/>
    </contour>
    <contour>
      <point x="149" y="257" type="curve" smooth="yes"/>
      <point x="149" y="377"/>
      <point x="200" y="444"/>
      <point x="286" y="444" type="curve" smooth="yes"/>
      <point x="372" y="444"/>
      <point x="423" y="377"/>
      <point x="423" y="257" type="curve" smooth="yes"/>
      <point x="423" y="137"/>
      <point x="372" y="71"/>
      <point x="286" y="71" type="curve" smooth="yes"/>
      <point x="200" y="71"/>
      <point x="149" y="137"/>
    </contour>
    <contour>
      <point x="286" y="515" type="move" name="top"/>
    </contour>
    <contour>
      <point x="286" y="0" type="move" name="bottom"/>
    </contour>
    <contour>
      <point x="300" y="0" type="move" name="ogonek"/>
    </contour>
  </outline>
</glyph>
<glyph name="p" format="1">
  <advance width="586"/>
  <unicode hex="0070"/>
  <outline>
    <contour>
      <point x="75" y="515" type="line"/>
      <point x="83" y="471" type="line" smooth="yes"/>
      <point x="88" y="442"/>
      <point x="90" y="421"/>
      <point x="90" y="393" type="curve" smooth="yes"/>
      <point x="90" y="-200" type="line"/>
      <point x="182" y="-180" type="line"/>
      <point x="182" y="383" type="line"/>
      <point x="181" y="420" type="line"/>
      <point x="161" y="515" type="line"/>
    </contour>
    <contour>
      <point x="142" y="222" type="line"/>
      <point x="142" y="54"/>
      <point x="232" y="-10"/>
      <point x="318" y="-10" type="curve"/>
      <point x="447" y="-10"/>
      <point x="531" y="92"/>
      <point x="531" y="262" type="curve" smooth="yes"/>
      <point x="531" y="426"/>
      <point x="444.4945054945056" y="525.0"/>
      <point x="339" y="525" type="curve" smooth="yes"/>
      <point x="273" y="525"/>
      <point x="211" y="486"/>
      <point x="167" y="430" type="curve"/>
      <point x="167" y="358" type="line"/>
      <point x="211" y="408"/>
      <point x="261" y="440"/>
      <point x="314" y="440" type="curve" smooth="yes"/>
      <point x="383.66371681415933" y="440.0"/>
      <point x="437.0" y="376.2386363636364"/>
      <point x="437" y="259" type="curve" smooth="yes"/>
      <point x="437.0" y="145.94416243654823"/>
      <point x="386" y="67"/>
      <point x="303" y="67" type="curve"/>
      <point x="243" y="67"/>
      <point x="182" y="117"/>
      <point x="182" y="232" type="curve"/>
    </contour>
  </outline>
</glyph>
<glyph name="r" format="1">
  <advance width="370"/>
  <unicode hex="0072"/>
  <outline>
    <contour>
      <point x="75" y="515" type="line"/>
      <point x="83" y="471" type="line" smooth="yes"/>
      <point x="88" y="442"/>
      <point x="90" y="421"/>
      <point x="90" y="393" type="curve" smooth="yes"/>
      <point x="90" y="0" type="line"/>
      <point x="182" y="0" type="line"/>
      <point x="182" y="368" type="line"/>
      <point x="181" y="420" type="line"/>
      <point x="161" y="515" type="line"/>
    </contour>
    <contour>
      <point x="167" y="344" type="line"/>
      <point x="204" y="394"/>
      <point x="264" y="422"/>
      <point x="345" y="426" type="curve"/>
      <point x="345" y="525" type="line"/>
      <point x="267" y="525"/>
      <point x="204.0" y="482.04761904761904"/>
      <point x="167" y="415" type="curve"/>
    </contour>
  </outline>
</glyph>
<glyph name="s" format="1">
  <advance width="501"/>
  <unicode hex="0073"/>
  <outline>
    <contour>
      <point x="50" y="61" type="line"/>
      <point x="96" y="19"/>
      <point x="168" y="-10"/>
      <point x="245" y="-10" type="curve" smooth="yes"/>
      <point x="367" y="-10"/>
      <point x="446" y="54"/>
      <point x="446" y="140" type="curve" smooth="yes"/>
      <point x="446" y="211"/>
      <point x="408" y="267"/>
      <point x="277" y="306" type="curve" smooth="yes"/>
      <point x="182" y="334"/>
      <point x="156" y="352"/>
      <point x="156" y="390" type="curve" smooth="yes"/>
      <point x="156" y="422"/>
      <point x="188" y="448"/>
      <point x="249" y="448" type="curve" smooth="yes"/>
      <point x="299" y="448"/>
      <point x="344" y="427"/>
      <point x="376" y="401" type="curve"/>
      <point x="427" y="467" type="line"/>
      <point x="380" y="505"/>
      <point x="315" y="525"/>
      <point x="258" y="525" type="curve" smooth="yes"/>
      <point x="147" y="525"/>
      <point x="68" y="463"/>
      <point x="68" y="380" type="curve" smooth="yes"/>
      <point x="68" y="309"/>
      <point x="114" y="257"/>
      <point x="232" y="221" type="curve" smooth="yes"/>
      <point x="328" y="192"/>
      <point x="354" y="165"/>
      <point x="354" y="129" type="curve" smooth="yes"/>
      <point x="354" y="92"/>
      <point x="321" y="67"/>
      <point x="253" y="67" type="curve" smooth="yes"/>
      <point x="188" y="67"/>
      <point x="140" y="94"/>
      <point x="104" y="123" type="curve"/>
    </contour>
    <contour>
      <point x="245" y="0" type="move" name="bottom"/>
    </contour>
    <contour>
      <point x="258" y="515" type="move" name="top"/>
    </contour>
  </outline>
</glyph>
<glyph name="t" format="1">
  <advance width="394"/>
  <unicode hex="0074"/>
  <outline>
    <contour>
      <point x="20" y="435" type="line"/>
      <point x="354" y="435" type="line"/>
      <point x="354" y="515" type="line"/>
      <point x="20" y="515" type="line"/>
    </contour>
    <contour>
      <point x="110" y="152" type="line" smooth="yes"/>
      <point x="110" y="48"/>
      <point x="180" y="-10"/>
      <point x="264" y="-10" type="curve"/>
      <point x="300" y="-10"/>
      <point x="337" y="-1"/>
      <point x="369" y="11" type="curve"/>
      <point x="353" y="90" type="line"/>
      <point x="325" y="79"/>
      <point x="302" y="73"/>
      <point x="280" y="73" type="curve"/>
      <point x="226" y="73"/>
      <point x="202" y="103"/>
      <point x="202" y="156" type="curve" smooth="yes"/>
      <point x="202" y="654" type="line"/>
      <point x="110" y="634" type="line"/>
    </contour>
    <contour>
      <point x="394" y="720" type="move" name="caron.alt"/>
    </contour>
    <contour>
      <point x="230" y="0" type="move" name="bottom"/>
    </contour>
  </outline>
</glyph>
<glyph name="u" format="1">
  <advance width="600"/>
  <unicode hex="0075"/>
  <outline>
    <contour>
      <point x="85" y="199" type="line" smooth="yes"/>
      <point x="85" y="58"/>
      <point x="160" y="-10"/>
      <point x="262" y="-10" type="curve" smooth="yes"/>
      <point x="329" y="-10"/>
      <point x="389" y="29"/>
      <point x="433" y="85" type="curve"/>
      <point x="433" y="157" type="line"/>
      <point x="389" y="107"/>
      <point x="339" y="77"/>
      <point x="286" y="77" type="curve" smooth="yes"/>
      <point x="222" y="77"/>
      <point x="177" y="118"/>
      <point x="177" y="211" type="curve" smooth="yes"/>
      <point x="177" y="515" type="line"/>
      <point x="85" y="515" type="line"/>
    </contour>
    <contour>
      <point x="439" y="0" type="line"/>
      <point x="525" y="0" type="line"/>
      <point x="517" y="44" type="line" smooth="yes"/>
      <point x="512" y="73"/>
      <point x="510" y="94"/>
      <point x="510" y="122" type="curve" smooth="yes"/>
      <point x="510" y="515" type="line"/>
      <point x="418" y="515" type="line"/>
      <point x="418" y="100" type="line"/>
    </contour>
    <contour>
      <point x="298" y="515" type="move" name="top"/>
    </contour>
    <contour>
      <point x="298" y="0" type="move" name="bottom"/>
    </contour>
    <contour>
      <point x="439" y="0" type="move" name="ogonek"/>
    </contour>
  </outline>
</glyph>
<glyph name="w" format="1">
  <advance width="749"/>
  <unicode hex="0077"/>
  <outline>
    <contour>
      <point x="10" y="515" type="line"/>
      <point x="182" y="0" type="line"/>
      <point x="235" y="0" type="line"/>
      <point x="234" y="94" type="line"/>
      <point x="108" y="515" type="line"/>
    </contour>
    <contour>
      <point x="208" y="94" type="line"/>
      <point x="209" y="0" type="line"/>
      <point x="254" y="0" type="line"/>
      <point x="390" y="409" type="line"/>
      <point x="390" y="515" type="line"/>
      <point x="339" y="515" type="line"/>
    </contour>
    <contour>
      <point x="359" y="409" type="line"/>
      <point x="495" y="0" type="line"/>
      <point x="548" y="0" type="line"/>
      <point x="547" y="94" type="line"/>
      <point x="414" y="515" type="line"/>
      <point x="359" y="515" type="line"/>
    </contour>
    <contour>
      <point x="521" y="94" type="line"/>
      <point x="522" y="0" type="line"/>
      <point x="567" y="0" type="line"/>
      <point x="739" y="515" type="line"/>
      <point x="645" y="515" type="line"/>
    </contour>
    <contour>
      <point x="374" y="515" type="move" name="top"/>
    </contour>
  </outline>
</glyph>
<glyph name="asciitilde" format="1">
  <advance width="660"/>
  <unicode hex="007E"/>
  <outline>
    <contour>
      <point x="113" y="301" type="curve"/>
      <point x="176" y="301" type="line"/>
      <point x="185" y="364"/>
      <point x="205" y="384"/>
      <point x="235" y="384" type="curve" smooth="yes"/>
      <point x="295" y="384"/>
      <point x="330" y="296"/>
      <point x="416" y="296" type="curve"/>
      <point x="489" y="296"/>
      <point x="536" y="355"/>
      <point x="547" y="456" type="curve"/>
      <point x="484" y="456" type="line"/>
      <point x="475" y="393"/>
      <point x="455" y="373"/>
      <point x="425" y="373" type="curve" smooth="yes"/>
      <point x="367" y="373"/>
      <point x="331" y="461"/>
      <point x="244" y="461" type="curve"/>
      <point x="170" y="461"/>
      <point x="124" y="402"/>
    </contour>
  </outline>
</glyph>
<glyph name="exclamdown" format="1">
  <advance width="322"/>
  <unicode hex="00A1"/>
  <outline>
    <contour>
      <point x="110" y="-185" type="line"/>
      <point x="212" y="-185" type="line"/>
      <point x="212" y="0" type="line"/>
      <point x="196" y="305" type="line"/>
      <point x="126" y="305" type="line"/>
      <point x="110" y="0" type="line"/>
    </contour>
    <contour>
      <point x="100" y="463" type="curve" smooth="yes"/>
      <point x="100" y="427"/>
      <point x="124" y="400"/>
      <point x="161" y="400" type="curve" smooth="yes"/>
      <point x="196" y="400"/>
      <point x="222" y="427"/>
      <point x="222" y="463" type="curve" smooth="yes"/>
      <point x="222" y="498"/>
      <point x="196" y="525"/>
      <point x="161" y="525" type="curve" smooth="yes"/>
      <point x="124" y="525"/>
      <point x="100" y="498"/>
    </contour>
  </outline>
</glyph>
<glyph name="cent" format="1">
  <advance width="660"/>
  <unicode hex="00A2"/>
  <outline>
    <contour>
      <point x="319" y="-100" type="line"/>
      <point x="395" y="-100" type="line"/>
      <point x="395" y="280" type="line"/>
      <point x="319" y="280" type="line"/>
    </contour>
    <contour>
      <point x="319" y="280" type="line"/>
      <point x="395" y="280" type="line"/>
      <point x="395" y="695" type="line"/>
      <point x="319" y="695" type="line"/>
    </contour>
    <contour>
      <point x="125" y="292" type="curve" smooth="yes"/>
      <point x="125" y="117"/>
      <point x="231" y="30"/>
      <point x="371" y="30" type="curve" smooth="yes"/>
      <point x="435" y="30"/>
      <point x="499" y="53"/>
      <point x="539" y="95" type="curve"/>
      <point x="486" y="162" type="line"/>
      <point x="459" y="134"/>
      <point x="419" y="114"/>
      <point x="367" y="114" type="curve" smooth="yes"/>
      <point x="288" y="114"/>
      <point x="219" y="172"/>
      <point x="219" y="292" type="curve" smooth="yes"/>
      <point x="219" y="412"/>
      <point x="290" y="481"/>
      <point x="372" y="481" type="curve" smooth="yes"/>
      <point x="419" y="481"/>
      <point x="456" y="462"/>
      <point x="481" y="433" type="curve"/>
      <point x="537" y="500" type="line"/>
      <point x="497" y="542"/>
      <point x="435" y="565"/>
      <point x="376" y="565" type="curve" smooth="yes"/>
      <point x="236" y="565"/>
      <point x="125" y="461"/>
    </contour>
  </outline>
</glyph>
<glyph name="sterling" format="1">
  <advance width="660"/>
  <unicode hex="00A3"/>
  <outline>
    <contour>
      <point x="583" y="583" type="line"/>
      <point x="542" y="651"/>
      <point x="460" y="700"/>
      <point x="373" y="700" type="curve" smooth="yes"/>
      <point x="246" y="700"/>
      <point x="145" y="615"/>
      <point x="145" y="454" type="curve" smooth="yes"/>
      <point x="145" y="0" type="line"/>
      <point x="239" y="0" type="line"/>
      <point x="239" y="444" type="line" smooth="yes"/>
      <point x="239" y="560"/>
      <point x="291" y="612"/>
      <point x="374" y="612" type="curve" smooth="yes"/>
      <point x="441" y="612"/>
      <point x="488" y="571"/>
      <point x="512" y="527" type="curve"/>
    </contour>
    <contour>
      <point x="559" y="81" type="line"/>
      <point x="60" y="81" type="line"/>
      <point x="60" y="0" type="line"/>
      <point x="559" y="0" type="line"/>
    </contour>
    <contour>
      <point x="60" y="295" type="line"/>
      <point x="460" y="295" type="line"/>
      <point x="460" y="375" type="line"/>
      <point x="60" y="375" type="line"/>
    </contour>
  </outline>
</glyph>
<glyph name="currency" format="1">
  <advance width="640"/>
  <unicode hex="00A4"/>
  <outline>
    <contour>
      <point x="100" y="345" type="curve" smooth="yes"/>
      <point x="100" y="196"/>
      <point x="192" y="110"/>
      <point x="320" y="110" type="curve" smooth="yes"/>
      <point x="448" y="110"/>
      <point x="540" y="196"/>
      <point x="540" y="345" type="curve" smooth="yes"/>
      <point x="540" y="494"/>
      <point x="448" y="580"/>
      <point x="320" y="580" type="curve" smooth="yes"/>
      <point x="192" y="580"/>
      <point x="100" y="494"/>
    </contour>
    <contour>
      <point x="194" y="345" type="curve" smooth="yes"/>
      <point x="194" y="442"/>
      <point x="241" y="498"/>
      <point x="320" y="498" type="curve" smooth="yes"/>
      <point x="399" y="498"/>
      <point x="446" y="442"/>
      <point x="446" y="345" type="curve" smooth="yes"/>
      <point x="446" y="248"/>
      <point x="399" y="192"/>
      <point x="320" y="192" type="curve" smooth="yes"/>
      <point x="241" y="192"/>
      <point x="194" y="248"/>
    </contour>
    <contour>
      <point x="54" y="136" type="line"/>
      <point x="111" y="79" type="line"/>
      <point x="196" y="164" type="line"/>
      <point x="139" y="221" type="line"/>
    </contour>
    <contour>
      <point x="444" y="164" type="line"/>
      <point x="529" y="79" type="line"/>
      <point x="586" y="136" type="line"/>
      <point x="501" y="221" type="line"/>
    </contour>
    <contour>
      <point x="54" y="554" type="line"/>
      <point x="139" y="469" type="line"/>
      <point x="196" y="526" type="line"/>
      <point x="111" y="611" type="line"/>
    </contour>
    <contour>
      <point x="444" y="526" type="line"/>
      <point x="501" y="469" type="line"/>
      <point x="586" y="554" type="line"/>
      <point x="529" y="611" type="line"/>
    </contour>
  </outline>
</glyph>
<glyph name="yen" format="1">
  <advance width="640"/>
  <unicode hex="00A5"/>
  <outline>
    <contour>
      <point x="27" y="690" type="line"/>
      <point x="280" y="300" type="line"/>
      <point x="335" y="300" type="line"/>
      <point x="339" y="366" type="line"/>
      <point x="139" y="690" type="line"/>
    </contour>
    <contour>
      <point x="107" y="163" type="line"/>
      <point x="533" y="163" type="line"/>
      <point x="533" y="239" type="line"/>
      <point x="107" y="239" type="line"/>
    </contour>
    <contour>
      <point x="107" y="308" type="line"/>
      <point x="533" y="308" type="line"/>
      <point x="533" y="384" type="line"/>
      <point x="107" y="384" type="line"/>
    </contour>
    <contour>
      <point x="272" y="0" type="line"/>
      <point x="368" y="0" type="line"/>
      <point x="368" y="350" type="line"/>
      <point x="272" y="350" type="line"/>
    </contour>
    <contour>
      <point x="305" y="366" type="line"/>
      <point x="313" y="300" type="line"/>
      <point x="360" y="300" type="line"/>
      <point x="613" y="690" type="line"/>
      <point x="505" y="690" type="line"/>
    </contour>
  </outline>
</glyph>
<glyph name="section" format="1">
  <advance width="660"/>
  <unicode hex="00A7"/>
  <outline>
    <contour>
      <point x="84" y="-109" type="line"/>
      <point x="148" y="-164"/>
      <point x="236" y="-196"/>
      <point x="315" y="-196" type="curve" smooth="yes"/>
      <point x="454" y="-196"/>
      <point x="549" y="-116"/>
      <point x="549" y="-18" type="curve" smooth="yes"/>
      <point x="549" y="64"/>
      <point x="497" y="120"/>
      <point x="327" y="177" type="curve" smooth="yes"/>
      <point x="197" y="221"/>
      <point x="159" y="254"/>
      <point x="159" y="303" type="curve" smooth="yes"/>
      <point x="159" y="349"/>
      <point x="208" y="387"/>
      <point x="301" y="387" type="curve"/>
      <point x="189" y="455" type="line"/>
      <point x="105" y="425"/>
      <point x="60" y="363"/>
      <point x="60" y="291" type="curve" smooth="yes"/>
      <point x="60" y="207"/>
      <point x="123" y="138"/>
      <point x="299" y="81" type="curve" smooth="yes"/>
      <point x="422" y="41"/>
      <point x="456" y="13"/>
      <point x="456" y="-28" type="curve" smooth="yes"/>
      <point x="456" y="-73"/>
      <point x="411" y="-113"/>
      <point x="322" y="-113" type="curve" smooth="yes"/>
      <point x="251" y="-113"/>
      <point x="189" y="-85"/>
      <point x="139" y="-37" type="curve"/>
    </contour>
    <contour>
      <point x="111" y="522" type="curve" smooth="yes"/>
      <point x="111" y="440"/>
      <point x="163" y="384"/>
      <point x="333" y="327" type="curve" smooth="yes"/>
      <point x="463" y="283"/>
      <point x="501" y="250"/>
      <point x="501" y="201" type="curve" smooth="yes"/>
      <point x="501" y="155"/>
      <point x="452" y="117"/>
      <point x="359" y="117" type="curve"/>
      <point x="471" y="49" type="line"/>
      <point x="555" y="79"/>
      <point x="600" y="141"/>
      <point x="600" y="213" type="curve" smooth="yes"/>
      <point x="600" y="297"/>
      <point x="537" y="366"/>
      <point x="361" y="423" type="curve" smooth="yes"/>
      <point x="238" y="463"/>
      <point x="204" y="491"/>
      <point x="204" y="532" type="curve" smooth="yes"/>
      <point x="204" y="577"/>
      <point x="249" y="617"/>
      <point x="338" y="617" type="curve" smooth="yes"/>
      <point x="409" y="617"/>
      <point x="471" y="589"/>
      <point x="521" y="541" type="curve"/>
      <point x="576" y="613" type="line"/>
      <point x="512" y="668"/>
      <point x="424" y="700"/>
      <point x="345" y="700" type="curve" smooth="yes"/>
      <point x="206" y="700"/>
      <point x="111" y="620"/>
    </contour>
  </outline>
</glyph>
<glyph name="ordfeminine" format="1">
  <advance width="440"/>
  <unicode hex="00AA"/>
  <outline>
    <contour>
      <point x="54" y="394" type="curve" smooth="yes"/>
      <point x="54" y="323"/>
      <point x="107" y="280"/>
      <point x="166" y="280" type="curve" smooth="yes"/>
      <point x="224" y="280"/>
      <point x="276" y="311"/>
      <point x="306" y="353" type="curve"/>
      <point x="306" y="413" type="line"/>
      <point x="271" y="374"/>
      <point x="231" y="350"/>
      <point x="189" y="350" type="curve" smooth="yes"/>
      <point x="156" y="350"/>
      <point x="134" y="368"/>
      <point x="134" y="400" type="curve" smooth="yes"/>
      <point x="134" y="431"/>
      <point x="158" y="461"/>
      <point x="254" y="471" type="curve" smooth="yes"/>
      <point x="300" y="476" type="line"/>
      <point x="300" y="531" type="line"/>
      <point x="251" y="529" type="line" smooth="yes"/>
      <point x="104" y="523"/>
      <point x="54" y="463"/>
    </contour>
    <contour>
      <point x="63" y="656" type="curve"/>
      <point x="90" y="590" type="line"/>
      <point x="127" y="610"/>
      <point x="161" y="626"/>
      <point x="203" y="626" type="curve" smooth="yes"/>
      <point x="257" y="626"/>
      <point x="288" y="600"/>
      <point x="288" y="535" type="curve" smooth="yes"/>
      <point x="288" y="370" type="line"/>
      <point x="305" y="290" type="line"/>
      <point x="380" y="290" type="line"/>
      <point x="373" y="325" type="line" smooth="yes"/>
      <point x="369" y="347"/>
      <point x="368" y="364"/>
      <point x="368" y="386" type="curve" smooth="yes"/>
      <point x="368" y="544" type="line" smooth="yes"/>
      <point x="368" y="649"/>
      <point x="299" y="700"/>
      <point x="210" y="700" type="curve" smooth="yes"/>
      <point x="161" y="700"/>
      <point x="101" y="679"/>
    </contour>
  </outline>
</glyph>
<glyph name="guillemetleft" format="1">
  <advance width="500"/>
  <unicode hex="00AB"/>
  <outline>
    <contour>
      <point x="40" y="247" type="line"/>
      <point x="160" y="83" type="line"/>
      <point x="259" y="83" type="line"/>
      <point x="100" y="293" type="line"/>
      <point x="40" y="292" type="line"/>
    </contour>
    <contour>
      <point x="40" y="249" type="line"/>
      <point x="100" y="248" type="line"/>
      <point x="259" y="458" type="line"/>
      <point x="160" y="458" type="line"/>
      <point x="40" y="294" type="line"/>
    </contour>
    <contour>
      <point x="261" y="247" type="line"/>
      <point x="381" y="83" type="line"/>
      <point x="480" y="83" type="line"/>
      <point x="321" y="293" type="line"/>
      <point x="261" y="292" type="line"/>
    </contour>
    <contour>
      <point x="261" y="249" type="line"/>
      <point x="321" y="248" type="line"/>
      <point x="480" y="458" type="line"/>
      <point x="381" y="458" type="line"/>
      <point x="261" y="294" type="line"/>
    </contour>
  </outline>
</glyph>
<glyph name="logicalnot" format="1">
  <advance width="640"/>
  <unicode hex="00AC"/>
  <outline>
    <contour>
      <point x="93" y="250" type="line"/>
      <point x="547" y="250" type="line"/>
      <point x="547" y="330" type="line"/>
      <point x="93" y="330" type="line"/>
    </contour>
    <contour>
      <point x="465" y="65" type="line"/>
      <point x="547" y="65" type="line"/>
      <point x="547" y="330" type="line"/>
      <point x="465" y="330" type="line"/>
    </contour>
  </outline>
</glyph>
<glyph name="macron" format="1">
  <advance width="600"/>
  <unicode hex="00AF"/>
  <outline>
    <contour>
      <point x="152" y="630" type="line"/>
      <point x="448" y="630" type="line"/>
      <point x="448" y="700" type="line"/>
      <point x="152" y="700" type="line"/>
    </contour>
    <contour>
      <point x="300" y="515" type="move" name="_top"/>
    </contour>
  </outline>
</glyph>
<glyph name="degree" format="1">
  <advance width="384"/>
  <unicode hex="00B0"/>
  <outline>
    <contour>
      <point x="50" y="560" type="curve" smooth="yes"/>
      <point x="50" y="481"/>
      <point x="112" y="420"/>
      <point x="192" y="420" type="curve" smooth="yes"/>
      <point x="272" y="420"/>
      <point x="334" y="481"/>
      <point x="334" y="560" type="curve" smooth="yes"/>
      <point x="334" y="639"/>
      <point x="272" y="700"/>
      <point x="192" y="700" type="curve" smooth="yes"/>
      <point x="112" y="700"/>
      <point x="50" y="639"/>
    </contour>
    <contour>
      <point x="122" y="560" type="curve" smooth="yes"/>
      <point x="122" y="603"/>
      <point x="152" y="634"/>
      <point x="192" y="634" type="curve" smooth="yes"/>
      <point x="232" y="634"/>
      <point x="262" y="603"/>
      <point x="262" y="560" type="curve" smooth="yes"/>
      <point x="262" y="517"/>
      <point x="232" y="486"/>
      <point x="192" y="486" type="curve" smooth="yes"/>
      <point x="152" y="486"/>
      <point x="122" y="517"/>
    </contour>
  </outline>
</glyph>
<glyph name="plusminus" format="1">
  <advance width="660"/>
  <unicode hex="00B1"/>
  <outline>
    <contour>
      <point x="103" y="65" type="line"/>
      <point x="557" y="65" type="line"/>
      <point x="557" y="140" type="line"/>
      <point x="103" y="140" type="line"/>
    </contour>
    <contour>
      <point x="103" y="280" type="line"/>
      <point x="557" y="280" type="line"/>
      <point x="557" y="360" type="line"/>
      <point x="103" y="360" type="line"/>
    </contour>
    <contour>
      <point x="288" y="65" type="line"/>
      <point x="372" y="65" type="line"/>
      <point x="372" y="545" type="line"/>
      <point x="288" y="545" type="line"/>
    </contour>
  </outline>
</glyph>
<glyph name="threesuperior" format="1">
  <advance width="440"/>
  <unicode hex="00B3"/>
  <outline>
    <contour>
      <point x="58" y="340" type="line"/>
      <point x="100" y="298"/>
      <point x="146" y="280"/>
      <point x="204" y="280" type="curve" smooth="yes"/>
      <point x="290" y="280"/>
      <point x="360" y="326"/>
      <point x="360" y="408" type="curve" smooth="yes"/>
      <point x="360" y="488"/>
      <point x="298" y="525"/>
      <point x="211" y="525" type="curve" smooth="yes"/>
      <point x="176" y="525" type="line"/>
      <point x="145" y="514" type="line"/>
      <point x="145" y="468" type="line"/>
      <point x="194" y="468" type="line" smooth="yes"/>
      <point x="248" y="468"/>
      <point x="282" y="446"/>
      <point x="282" y="408" type="curve" smooth="yes"/>
      <point x="282" y="370"/>
      <point x="248" y="350"/>
      <point x="204" y="350" type="curve" smooth="yes"/>
      <point x="166" y="350"/>
      <point x="136" y="365"/>
      <point x="110" y="394" type="curve"/>
    </contour>
    <contour>
      <point x="76" y="622" type="line"/>
      <point x="298" y="622" type="line"/>
      <point x="338" y="636" type="line"/>
      <point x="338" y="690" type="line"/>
      <point x="76" y="690" type="line"/>
    </contour>
    <contour>
      <point x="145" y="514" type="line"/>
      <point x="230" y="514" type="line"/>
      <point x="338" y="636" type="line"/>
      <point x="300" y="690" type="line"/>
    </contour>
  </outline>
</glyph>
<glyph name="acute" format="1">
  <advance width="600"/>
  <unicode hex="00B4"/>
  <outline>
    <contour>
      <point x="255" y="590" type="line"/>
      <point x="331" y="590" type="line"/>
      <point x="441" y="740" type="line"/>
      <point x="330" y="740" type="line"/>
    </contour>
    <contour>
      <point x="300" y="515" type="move" name="_top"/>
    </contour>
  </outline>
</glyph>
<glyph name="cedilla" format="1">
  <advance width="600"/>
  <unicode hex="00B8"/>
  <outline>
    <contour>
      <point x="222" y="-195" type="line"/>
      <point x="252" y="-195" type="line" smooth="yes"/>
      <point x="364" y="-195"/>
      <point x="398" y="-150"/>
      <point x="398" y="-111" type="curve"/>
      <point x="398" y="-75"/>
      <point x="374" y="-50"/>
      <point x="316" y="-45" type="curve"/>
      <point x="325" y="9" type="line"/>
      <point x="271" y="15" type="line"/>
      <point x="252" y="-83" type="line"/>
      <point x="282" y="-85" type="line" smooth="yes"/>
      <point x="309" y="-87"/>
      <point x="319" y="-96"/>
      <point x="319" y="-110" type="curve"/>
      <point x="319" y="-128"/>
      <point x="304" y="-142"/>
      <point x="234" y="-143" type="curve"/>
    </contour>
    <contour>
      <point x="300" y="0" type="move" name="_bottom"/>
    </contour>
  </outline>
</glyph>
<glyph name="ordmasculine" format="1">
  <advance width="480"/>
  <unicode hex="00BA"/>
  <outline>
    <contour>
      <point x="60" y="490" type="curve" smooth="yes"/>
      <point x="60" y="348"/>
      <point x="141" y="280"/>
      <point x="240" y="280" type="curve" smooth="yes"/>
      <point x="339" y="280"/>
      <point x="420" y="348"/>
      <point x="420" y="490" type="curve" smooth="yes"/>
      <point x="420" y="632"/>
      <point x="339" y="700"/>
      <point x="240" y="700" type="curve" smooth="yes"/>
      <point x="141" y="700"/>
      <point x="60" y="632"/>
    </contour>
    <contour>
      <point x="140" y="490" type="curve" smooth="yes"/>
      <point x="140" y="588"/>
      <point x="184" y="632"/>
      <point x="240" y="632" type="curve" smooth="yes"/>
      <point x="296" y="632"/>
      <point x="340" y="588"/>
      <point x="340" y="490" type="curve" smooth="yes"/>
      <point x="340" y="392"/>
      <point x="296" y="348"/>
      <point x="240" y="348" type="curve" smooth="yes"/>
      <point x="184" y="348"/>
      <point x="140" y="392"/>
    </contour>
  </outline>
</glyph>
<glyph name="questiondown" format="1">
  <advance width="508"/>
  <unicode hex="00BF"/>
  <outline>
    <contour>
      <point x="60" y="-5" type="curve"/>
      <point x="60" y="-121"/>
      <point x="151" y="-195"/>
      <point x="262" y="-195" type="curve"/>
      <point x="356" y="-195"/>
      <point x="424" y="-154"/>
      <point x="483" y="-83" type="curve"/>
      <point x="420" y="-17" type="line"/>
      <point x="377" y="-73"/>
      <point x="333" y="-104"/>
      <point x="265" y="-104" type="curve"/>
      <point x="203" y="-104"/>
      <point x="159" y="-62"/>
      <point x="159" y="-5" type="curve"/>
      <point x="159" y="43"/>
      <point x="192" y="73"/>
      <point x="251" y="113" type="curve" smooth="yes"/>
      <point x="294" y="142"/>
      <point x="316" y="177"/>
      <point x="311" y="232" type="curve" smooth="yes"/>
      <point x="305" y="305" type="line"/>
      <point x="226" y="305" type="line"/>
      <point x="223" y="245" type="line" smooth="yes"/>
      <point x="221" y="201"/>
      <point x="211" y="185"/>
      <point x="172" y="162" type="curve" smooth="yes"/>
      <point x="106" y="123"/>
      <point x="60" y="66"/>
    </contour>
    <component base="period" xScale="-1" yScale="-1" xOffset="376" yOffset="515"/>
  </outline>
</glyph>
<glyph name="AE" format="1">
  <advance width="961"/>
  <unicode hex="00C6"/>
  <outline>
    <contour>
      <point x="10" y="0" type="line"/>
      <point x="110" y="0" type="line"/>
      <point x="370" y="620" type="line"/>
      <point x="355" y="690" type="line"/>
      <point x="308" y="690" type="line"/>
    </contour>
    <contour>
      <point x="150" y="194" type="line"/>
      <point x="506" y="194" type="line"/>
      <point x="506" y="280" type="line"/>
      <point x="150" y="280" type="line"/>
    </contour>
    <contour>
      <point x="440" y="0" type="line"/>
      <point x="536" y="0" type="line"/>
      <point x="536" y="690" type="line"/>
      <point x="440" y="690" type="line"/>
    </contour>
    <contour>
      <point x="490" y="0" type="line"/>
      <point x="891" y="0" type="line"/>
      <point x="891" y="86" type="line"/>
      <point x="490" y="86" type="line"/>
    </contour>
    <contour>
      <point x="490" y="307" type="line"/>
      <point x="836" y="307" type="line"/>
      <point x="836" y="393" type="line"/>
      <point x="490" y="393" type="line"/>
    </contour>
    <contour>
      <point x="320" y="604" type="line"/>
      <point x="886" y="604" type="line"/>
      <point x="886" y="690" type="line"/>
      <point x="320" y="690" type="line"/>
    </contour>
    <contour>
      <point x="580" y="690" type="move" name="top"/>
    </contour>
  </outline>
</glyph>
<glyph name="Ccedilla" format="1">
  <advance width="644"/>
  <unicode hex="00C7"/>
  <outline>
    <contour>
      <point x="60" y="345" type="curve" smooth="yes"/>
      <point x="60" y="116"/>
      <point x="202" y="-10"/>
      <point x="373" y="-10" type="curve" smooth="yes"/>
      <point x="460" y="-10"/>
      <point x="534" y="23"/>
      <point x="594" y="84" type="curve"/>
      <point x="529" y="149" type="line"/>
      <point x="488" y="103"/>
      <point x="435" y="81"/>
      <point x="373" y="81" type="curve" smooth="yes"/>
      <point x="250" y="81"/>
      <point x="159" y="172"/>
      <point x="159" y="345" type="curve" smooth="yes"/>
      <point x="159" y="517"/>
      <point x="250" y="609"/>
      <point x="373" y="609" type="curve" smooth="yes"/>
      <point x="428" y="609"/>
      <point x="477" y="586"/>
      <point x="518" y="543" type="curve"/>
      <point x="586" y="608" type="line"/>
      <point x="526" y="666"/>
      <point x="453" y="700"/>
      <point x="373" y="700" type="curve" smooth="yes"/>
      <point x="202" y="700"/>
      <point x="60" y="573"/>
    </contour>
    <contour>
      <point x="285" y="-240" type="line"/>
      <point x="315" y="-240" type="line" smooth="yes"/>
      <point x="427" y="-240"/>
      <point x="463" y="-185"/>
      <point x="463" y="-141" type="curve" smooth="yes"/>
      <point x="463" y="-100"/>
      <point x="437" y="-70"/>
      <point x="379" y="-65" type="curve"/>
      <point x="391" y="9" type="line"/>
      <point x="333" y="15" type="line"/>
      <point x="315" y="-103" type="line"/>
      <point x="345" y="-105" type="line" smooth="yes"/>
      <point x="372" y="-107"/>
      <point x="383" y="-120"/>
      <point x="383" y="-140" type="curve" smooth="yes"/>
      <point x="383" y="-163"/>
      <point x="367" y="-184"/>
      <point x="297" y="-185" type="curve"/>
    </contour>
  </outline>
</glyph>
<glyph name="Eth" format="1">
  <advance width="701"/>
  <unicode hex="00D0"/>
  <outline>
    <contour>
      <point x="30" y="304" type="line"/>
      <point x="354" y="304" type="line"/>
      <point x="354" y="384" type="line"/>
      <point x="30" y="384" type="line"/>
    </contour>
    <component base="D"/>
  </outline>
</glyph>
<glyph name="multiply" format="1">
  <advance width="660"/>
  <unicode hex="00D7"/>
  <outline>
    <contour>
      <point x="114" y="448" type="line"/>
      <point x="489" y="73" type="line"/>
      <point x="546" y="130" type="line"/>
      <point x="171" y="505" type="line"/>
    </contour>
    <contour>
      <point x="114" y="130" type="line"/>
      <point x="171" y="73" type="line"/>
      <point x="546" y="448" type="line"/>
      <point x="489" y="505" type="line"/>
    </contour>
  </outline>
</glyph>
<glyph name="Oslash" format="1">
  <advance width="726"/>
  <unicode hex="00D8"/>
  <outline>
    <contour>
      <point x="60" y="345" type="curve" smooth="yes"/>
      <point x="60" y="112"/>
      <point x="197" y="-10"/>
      <point x="363" y="-10" type="curve" smooth="yes"/>
      <point x="529" y="-10"/>
      <point x="666" y="112"/>
      <point x="666" y="345" type="curve" smooth="yes"/>
      <point x="666" y="578"/>
      <point x="529" y="700"/>
      <point x="363" y="700" type="curve" smooth="yes"/>
      <point x="197" y="700"/>
      <point x="60" y="578"/>
    </contour>
    <contour>
      <point x="158" y="345" type="curve" smooth="yes"/>
      <point x="158" y="523"/>
      <point x="245" y="612"/>
      <point x="363" y="612" type="curve" smooth="yes"/>
      <point x="481" y="612"/>
      <point x="568" y="523"/>
      <point x="568" y="345" type="curve" smooth="yes"/>
      <point x="568" y="167"/>
      <point x="481" y="78"/>
      <point x="363" y="78" type="curve" smooth="yes"/>
      <point x="245" y="78"/>
      <point x="158" y="167"/>
    </contour>
    <contour>
      <point x="40" y="41" type="line"/>
      <point x="96" y="-10" type="line"/>
      <point x="686" y="649" type="line"/>
      <point x="630" y="700" type="line"/>
    </contour>
    <contour>
      <point x="363" y="690" type="move" name="top"/>
    </contour>
  </outline>
</glyph>
<glyph name="germandbls" format="1">
  <advance width="602"/>
  <unicode hex="00DF"/>
  <outline>
    <contour>
      <point x="488" y="670"/>
      <point x="410" y="730"/>
      <point x="290" y="730" type="curve" smooth="yes"/>
      <point x="170" y="730"/>
      <point x="90" y="666"/>
      <point x="90" y="536" type="curve" smooth="yes"/>
      <point x="90" y="0" type="line"/>
      <point x="182" y="0" type="line"/>
      <point x="182" y="534" type="line" smooth="yes"/>
      <point x="182" y="612"/>
      <point x="226" y="651"/>
      <point x="290" y="651" type="curve" smooth="yes"/>
      <point x="354" y="651"/>
      <point x="396" y="618"/>
      <point x="396" y="560" type="curve" smooth="yes"/>
      <point x="396" y="508"/>
      <point x="346" y="464"/>
      <point x="265" y="400" type="curve"/>
      <point x="265" y="310" type="line"/>
      <point x="386" y="238" type="line" smooth="yes"/>
      <point x="450" y="200"/>
      <point x="468" y="174"/>
      <point x="468" y="138" type="curve" smooth="yes"/>
      <point x="468" y="101"/>
      <point x="442" y="67"/>
      <point x="392" y="67" type="curve" smooth="yes"/>
      <point x="346" y="67"/>
      <point x="310" y="86"/>
      <point x="280" y="106" type="curve"/>
      <point x="246" y="30" type="line"/>
      <point x="274" y="14"/>
      <point x="328" y="-10"/>
      <point x="388" y="-10" type="curve" smooth="yes"/>
      <point x="490" y="-10"/>
      <point x="562" y="54"/>
      <point x="562" y="140" type="curve" smooth="yes"/>
      <point x="562" y="208"/>
      <point x="532" y="260"/>
      <point x="440" y="315" type="curve" smooth="yes"/>
      <point x="354" y="366" type="line"/>
      <point x="414" y="420"/>
      <point x="488" y="478"/>
      <point x="488" y="570" type="curve" smooth="yes"/>
    </contour>
  </outline>
</glyph>
<glyph name="ccedilla" format="1">
  <advance width="504"/>
  <unicode hex="00E7"/>
  <outline>
    <contour>
      <point x="55" y="252" type="curve" smooth="yes"/>
      <point x="55" y="77"/>
      <point x="161" y="-10"/>
      <point x="301" y="-10" type="curve" smooth="yes"/>
      <point x="365" y="-10"/>
      <point x="429" y="13"/>
      <point x="469" y="55" type="curve"/>
      <point x="416" y="122" type="line"/>
      <point x="389" y="94"/>
      <point x="349" y="74"/>
      <point x="297" y="74" type="curve" smooth="yes"/>
      <point x="218" y="74"/>
      <point x="149" y="132"/>
      <point x="149" y="252" type="curve" smooth="yes"/>
      <point x="149" y="372"/>
      <point x="220" y="441"/>
      <point x="302" y="441" type="curve" smooth="yes"/>
      <point x="349" y="441"/>
      <point x="386" y="422"/>
      <point x="411" y="393" type="curve"/>
      <point x="467" y="460" type="line"/>
      <point x="427" y="502"/>
      <point x="365" y="525"/>
      <point x="306" y="525" type="curve" smooth="yes"/>
      <point x="166" y="525"/>
      <point x="55" y="421"/>
    </contour>
    <contour>
      <point x="208" y="-240" type="line"/>
      <point x="238" y="-240" type="line" smooth="yes"/>
      <point x="350" y="-240"/>
      <point x="386" y="-185"/>
      <point x="386" y="-141" type="curve" smooth="yes"/>
      <point x="386" y="-100"/>
      <point x="360" y="-70"/>
      <point x="302" y="-65" type="curve"/>
      <point x="314" y="9" type="line"/>
      <point x="256" y="15" type="line"/>
      <point x="238" y="-103" type="line"/>
      <point x="268" y="-105" type="line" smooth="yes"/>
      <point x="295" y="-107"/>
      <point x="306" y="-120"/>
      <point x="306" y="-140" type="curve" smooth="yes"/>
      <point x="306" y="-163"/>
      <point x="290" y="-184"/>
      <point x="220" y="-185" type="curve"/>
    </contour>
  </outline>
</glyph>
<glyph name="divide" format="1">
  <advance width="660"/>
  <unicode hex="00F7"/>
  <outline>
    <contour>
      <point x="103" y="250" type="line"/>
      <point x="557" y="250" type="line"/>
      <point x="557" y="330" type="line"/>
      <point x="103" y="330" type="line"/>
    </contour>
    <contour>
      <point x="269" y="118" type="curve" smooth="yes"/>
      <point x="269" y="82"/>
      <point x="295" y="55"/>
      <point x="330" y="55" type="curve" smooth="yes"/>
      <point x="367" y="55"/>
      <point x="391" y="82"/>
      <point x="391" y="118" type="curve" smooth="yes"/>
      <point x="391" y="153"/>
      <point x="367" y="180"/>
      <point x="330" y="180" type="curve" smooth="yes"/>
      <point x="295" y="180"/>
      <point x="269" y="153"/>
    </contour>
    <contour>
      <point x="269" y="462" type="curve" smooth="yes"/>
      <point x="269" y="427"/>
      <point x="295" y="400"/>
      <point x="330" y="400" type="curve" smooth="yes"/>
      <point x="367" y="400"/>
      <point x="391" y="427"/>
      <point x="391" y="462" type="curve" smooth="yes"/>
      <point x="391" y="498"/>
      <point x="367" y="525"/>
      <point x="330" y="525" type="curve" smooth="yes"/>
      <point x="295" y="525"/>
      <point x="269" y="498"/>
    </contour>
  </outline>
</glyph>
<glyph name="oslash" format="1">
  <advance width="572"/>
  <unicode hex="00F8"/>
  <outline>
    <contour>
      <point x="55" y="257" type="curve" smooth="yes"/>
      <point x="55" y="84"/>
      <point x="152" y="-10"/>
      <point x="286" y="-10" type="curve" smooth="yes"/>
      <point x="420" y="-10"/>
      <point x="517" y="84"/>
      <point x="517" y="257" type="curve" smooth="yes"/>
      <point x="517" y="430"/>
      <point x="420" y="525"/>
      <point x="286" y="525" type="curve" smooth="yes"/>
      <point x="152" y="525"/>
      <point x="55" y="430"/>
    </contour>
    <contour>
      <point x="147" y="257" type="curve" smooth="yes"/>
      <point x="147" y="378"/>
      <point x="199" y="445"/>
      <point x="286" y="445" type="curve" smooth="yes"/>
      <point x="373" y="445"/>
      <point x="425" y="378"/>
      <point x="425" y="257" type="curve" smooth="yes"/>
      <point x="425" y="136"/>
      <point x="373" y="70"/>
      <point x="286" y="70" type="curve" smooth="yes"/>
      <point x="199" y="70"/>
      <point x="147" y="136"/>
    </contour>
    <contour>
      <point x="35" y="41" type="line"/>
      <point x="91" y="-10" type="line"/>
      <point x="537" y="474" type="line"/>
      <point x="481" y="525" type="line"/>
    </contour>
    <contour>
      <point x="286" y="515" type="move" name="top"/>
    </contour>
  </outline>
</glyph>
<glyph name="IJ" format="1">
  <advance width="739"/>
  <unicode hex="0132"/>
  <outline>
    <contour>
      <point x="100" y="0" type="line"/>
      <point x="196" y="0" type="line"/>
      <point x="196" y="690" type="line"/>
      <point x="100" y="690" type="line"/>
    </contour>
    <contour>
      <point x="296" y="25" type="line"/>
      <point x="334" y="2"/>
      <point x="376" y="-10"/>
      <point x="421" y="-10" type="curve" smooth="yes"/>
      <point x="548" y="-10"/>
      <point x="649" y="75"/>
      <point x="649" y="236" type="curve" smooth="yes"/>
      <point x="649" y="690" type="line"/>
      <point x="555" y="690" type="line"/>
      <point x="555" y="246" type="line" smooth="yes"/>
      <point x="555" y="130"/>
      <point x="503" y="78"/>
      <point x="420" y="78" type="curve" smooth="yes"/>
      <point x="386" y="78"/>
      <point x="358" y="88"/>
      <point x="334" y="104" type="curve"/>
    </contour>
  </outline>
</glyph>
<glyph name="lslash" format="1">
  <advance width="312"/>
  <unicode hex="0142"/>
  <outline>
    <contour>
      <point x="110" y="0" type="line"/>
      <point x="202" y="0" type="line"/>
      <point x="202" y="735" type="line"/>
      <point x="110" y="715" type="line"/>
    </contour>
    <contour>
      <point x="35" y="220" type="line"/>
      <point x="282" y="360" type="line"/>
      <point x="282" y="440" type="line"/>
      <point x="35" y="300" type="line"/>
    </contour>
  </outline>
</glyph>
<glyph name="eng" format="1">
  <advance width="604"/>
  <unicode hex="014B"/>
  <outline>
    <contour>
      <point x="75" y="515" type="line"/>
      <point x="83" y="471" type="line" smooth="yes"/>
      <point x="88" y="442"/>
      <point x="90" y="421"/>
      <point x="90" y="393" type="curve" smooth="yes"/>
      <point x="90" y="0" type="line"/>
      <point x="182" y="0" type="line"/>
      <point x="182" y="383" type="line"/>
      <point x="181" y="420" type="line"/>
      <point x="161" y="515" type="line"/>
    </contour>
    <contour>
      <point x="167" y="358" type="line"/>
      <point x="211" y="408"/>
      <point x="263" y="438"/>
      <point x="316" y="438" type="curve"/>
      <point x="380" y="438"/>
      <point x="427" y="397"/>
      <point x="427" y="304" type="curve" smooth="yes"/>
      <point x="427" y="0" type="line"/>
      <point x="519" y="0" type="line"/>
      <point x="519" y="316" type="line" smooth="yes"/>
      <point x="519" y="457"/>
      <point x="442" y="525"/>
      <point x="340" y="525" type="curve"/>
      <point x="273" y="525"/>
      <point x="211" y="486"/>
      <point x="167" y="430" type="curve"/>
    </contour>
    <contour>
      <point x="286" y="-181" type="line"/>
      <point x="307" y="-189"/>
      <point x="334" y="-195"/>
      <point x="361" y="-195" type="curve" smooth="yes"/>
      <point x="451" y="-195"/>
      <point x="519" y="-134"/>
      <point x="519" y="-34" type="curve" smooth="yes"/>
      <point x="519" y="0" type="line"/>
      <point x="427" y="0" type="line"/>
      <point x="427" y="-30" type="line" smooth="yes"/>
      <point x="427" y="-88"/>
      <point x="401" y="-114"/>
      <point x="355" y="-114" type="curve" smooth="yes"/>
      <point x="335" y="-114"/>
      <point x="318" y="-110"/>
      <point x="302" y="-105" type="curve"/>
    </contour>
  </outline>
</glyph>
<glyph name="Scedilla" format="1">
  <advance width="624"/>
  <unicode hex="015E"/>
  <outline>
    <contour>
      <point x="50" y="94" type="line"/>
      <point x="112" y="33"/>
      <point x="220" y="-10"/>
      <point x="320" y="-10" type="curve" smooth="yes"/>
      <point x="480" y="-10"/>
      <point x="569" y="76"/>
      <point x="569" y="183" type="curve" smooth="yes"/>
      <point x="569" y="271"/>
      <point x="507" y="346"/>
      <point x="330" y="403" type="curve" smooth="yes"/>
      <point x="206" y="443"/>
      <point x="173" y="477"/>
      <point x="173" y="522" type="curve" smooth="yes"/>
      <point x="173" y="572"/>
      <point x="218" y="617"/>
      <point x="307" y="617" type="curve" smooth="yes"/>
      <point x="378" y="617"/>
      <point x="440" y="589"/>
      <point x="490" y="541" type="curve"/>
      <point x="545" y="613" type="line"/>
      <point x="481" y="668"/>
      <point x="393" y="700"/>
      <point x="314" y="700" type="curve" smooth="yes"/>
      <point x="175" y="700"/>
      <point x="80" y="615"/>
      <point x="80" y="512" type="curve" smooth="yes"/>
      <point x="80" y="426"/>
      <point x="131" y="364"/>
      <point x="302" y="307" type="curve" smooth="yes"/>
      <point x="433" y="263"/>
      <point x="470" y="224"/>
      <point x="470" y="171" type="curve" smooth="yes"/>
      <point x="470" y="120"/>
      <point x="421" y="77"/>
      <point x="328" y="77" type="curve" smooth="yes"/>
      <point x="238" y="77"/>
      <point x="164" y="108"/>
      <point x="106" y="163" type="curve"/>
    </contour>
    <contour>
      <point x="242" y="-240" type="line"/>
      <point x="272" y="-240" type="line" smooth="yes"/>
      <point x="384" y="-240"/>
      <point x="420" y="-185"/>
      <point x="420" y="-141" type="curve" smooth="yes"/>
      <point x="420" y="-100"/>
      <point x="394" y="-70"/>
      <point x="336" y="-65" type="curve"/>
      <point x="348" y="9" type="line"/>
      <point x="290" y="15" type="line"/>
      <point x="272" y="-103" type="line"/>
      <point x="302" y="-105" type="line" smooth="yes"/>
      <point x="329" y="-107"/>
      <point x="340" y="-120"/>
      <point x="340" y="-140" type="curve" smooth="yes"/>
      <point x="340" y="-163"/>
      <point x="324" y="-184"/>
      <point x="254" y="-185" type="curve"/>
    </contour>
  </outline>
</glyph>
<glyph name="scedilla" format="1">
  <advance width="501"/>
  <unicode hex="015F"/>
  <outline>
    <contour>
      <point x="50" y="61" type="line"/>
      <point x="96" y="19"/>
      <point x="168" y="-10"/>
      <point x="245" y="-10" type="curve" smooth="yes"/>
      <point x="367" y="-10"/>
      <point x="446" y="54"/>
      <point x="446" y="140" type="curve" smooth="yes"/>
      <point x="446" y="211"/>
      <point x="408" y="267"/>
      <point x="277" y="306" type="curve" smooth="yes"/>
      <point x="182" y="334"/>
      <point x="156" y="352"/>
      <point x="156" y="390" type="curve" smooth="yes"/>
      <point x="156" y="422"/>
      <point x="188" y="448"/>
      <point x="249" y="448" type="curve" smooth="yes"/>
      <point x="299" y="448"/>
      <point x="344" y="427"/>
      <point x="376" y="401" type="curve"/>
      <point x="427" y="467" type="line"/>
      <point x="380" y="505"/>
      <point x="315" y="525"/>
      <point x="258" y="525" type="curve" smooth="yes"/>
      <point x="147" y="525"/>
      <point x="68" y="463"/>
      <point x="68" y="380" type="curve" smooth="yes"/>
      <point x="68" y="309"/>
      <point x="114" y="257"/>
      <point x="232" y="221" type="curve" smooth="yes"/>
      <point x="328" y="192"/>
      <point x="354" y="165"/>
      <point x="354" y="129" type="curve" smooth="yes"/>
      <point x="354" y="92"/>
      <point x="321" y="67"/>
      <point x="253" y="67" type="curve" smooth="yes"/>
      <point x="188" y="67"/>
      <point x="140" y="94"/>
      <point x="104" y="123" type="curve"/>
    </contour>
    <contour>
      <point x="167" y="-240" type="line"/>
      <point x="197" y="-240" type="line" smooth="yes"/>
      <point x="309" y="-240"/>
      <point x="345" y="-185"/>
      <point x="345" y="-141" type="curve" smooth="yes"/>
      <point x="345" y="-100"/>
      <point x="319" y="-70"/>
      <point x="261" y="-65" type="curve"/>
      <point x="273" y="9" type="line"/>
      <point x="215" y="15" type="line"/>
      <point x="197" y="-103" type="line"/>
      <point x="227" y="-105" type="line" smooth="yes"/>
      <point x="254" y="-107"/>
      <point x="265" y="-120"/>
      <point x="265" y="-140" type="curve" smooth="yes"/>
      <point x="265" y="-163"/>
      <point x="249" y="-184"/>
      <point x="179" y="-185" type="curve"/>
    </contour>
  </outline>
</glyph>
<glyph name="Tcedilla" format="1">
  <advance width="576"/>
  <unicode hex="0162"/>
  <outline>
    <contour>
      <point x="30" y="604" type="line"/>
      <point x="546" y="604" type="line"/>
      <point x="546" y="690" type="line"/>
      <point x="30" y="690" type="line"/>
    </contour>
    <contour>
      <point x="240" y="0" type="line"/>
      <point x="336" y="0" type="line"/>
      <point x="336" y="690" type="line"/>
      <point x="240" y="690" type="line"/>
    </contour>
    <contour>
      <point x="210" y="-240" type="line"/>
      <point x="240" y="-240" type="line" smooth="yes"/>
      <point x="352" y="-240"/>
      <point x="388" y="-185"/>
      <point x="388" y="-141" type="curve" smooth="yes"/>
      <point x="388" y="-100"/>
      <point x="362" y="-70"/>
      <point x="304" y="-65" type="curve"/>
      <point x="316" y="9" type="line"/>
      <point x="258" y="15" type="line"/>
      <point x="240" y="-103" type="line"/>
      <point x="270" y="-105" type="line" smooth="yes"/>
      <point x="297" y="-107"/>
      <point x="308" y="-120"/>
      <point x="308" y="-140" type="curve" smooth="yes"/>
      <point x="308" y="-163"/>
      <point x="292" y="-184"/>
      <point x="222" y="-185" type="curve"/>
    </contour>
  </outline>
</glyph>
<glyph name="tcedilla" format="1">
  <advance width="394"/>
  <unicode hex="0163"/>
  <outline>
    <contour>
      <point x="20" y="435" type="line"/>
      <point x="354" y="435" type="line"/>
      <point x="354" y="515" type="line"/>
      <point x="20" y="515" type="line"/>
    </contour>
    <contour>
      <point x="110" y="152" type="line" smooth="yes"/>
      <point x="110" y="48"/>
      <point x="180" y="-10"/>
      <point x="264" y="-10" type="curve"/>
      <point x="300" y="-10"/>
      <point x="337" y="-1"/>
      <point x="369" y="11" type="curve"/>
      <point x="353" y="90" type="line"/>
      <point x="325" y="79"/>
      <point x="302" y="73"/>
      <point x="280" y="73" type="curve"/>
      <point x="226" y="73"/>
      <point x="202" y="103"/>
      <point x="202" y="156" type="curve" smooth="yes"/>
      <point x="202" y="654" type="line"/>
      <point x="110" y="634" type="line"/>
    </contour>
    <contour>
      <point x="152" y="-240" type="line"/>
      <point x="182" y="-240" type="line" smooth="yes"/>
      <point x="294" y="-240"/>
      <point x="330" y="-185"/>
      <point x="330" y="-141" type="curve" smooth="yes"/>
      <point x="330" y="-100"/>
      <point x="304" y="-70"/>
      <point x="246" y="-65" type="curve"/>
      <point x="258" y="9" type="line"/>
      <point x="200" y="15" type="line"/>
      <point x="182" y="-103" type="line"/>
      <point x="212" y="-105" type="line" smooth="yes"/>
      <point x="239" y="-107"/>
      <point x="250" y="-120"/>
      <point x="250" y="-140" type="curve" smooth="yes"/>
      <point x="250" y="-163"/>
      <point x="234" y="-184"/>
      <point x="164" y="-185" type="curve"/>
    </contour>
  </outline>
</glyph>
<glyph name="tbar" format="1">
  <advance width="414"/>
  <unicode hex="0167"/>
  <outline>
    <contour>
      <point x="30" y="435" type="line"/>
      <point x="364" y="435" type="line"/>
      <point x="364" y="515" type="line"/>
      <point x="30" y="515" type="line"/>
    </contour>
    <contour>
      <point x="120" y="152" type="line" smooth="yes"/>
      <point x="120" y="48"/>
      <point x="190" y="-10"/>
      <point x="274" y="-10" type="curve" smooth="yes"/>
      <point x="310" y="-10"/>
      <point x="347" y="-1"/>
      <point x="379" y="11" type="curve"/>
      <point x="363" y="90" type="line"/>
      <point x="335" y="79"/>
      <point x="312" y="73"/>
      <point x="290" y="73" type="curve" smooth="yes"/>
      <point x="236" y="73"/>
      <point x="212" y="103"/>
      <point x="212" y="156" type="curve" smooth="yes"/>
      <point x="212" y="654" type="line"/>
      <point x="120" y="634" type="line"/>
    </contour>
    <contour>
      <point x="30" y="240" type="line"/>
      <point x="364" y="240" type="line"/>
      <point x="364" y="310" type="line"/>
      <point x="30" y="310" type="line"/>
    </contour>
  </outline>
</glyph>
<glyph name="Uogonek" format="1">
  <advance width="706"/>
  <unicode hex="0172"/>
  <outline>
    <contour>
      <point x="500" y="-170" type="curve"/>
      <point x="480" y="-122" type="line"/>
      <point x="466" y="-130"/>
      <point x="450" y="-139"/>
      <point x="428" y="-139" type="curve" smooth="yes"/>
      <point x="406" y="-139"/>
      <point x="388" y="-124"/>
      <point x="388" y="-100" type="curve" smooth="yes"/>
      <point x="388" y="-66"/>
      <point x="425" y="-29"/>
      <point x="512" y="34" type="curve" smooth="yes"/>
      <point x="575" y="80"/>
      <point x="616" y="150"/>
      <point x="616" y="250" type="curve" smooth="yes"/>
      <point x="616" y="690" type="line"/>
      <point x="522" y="690" type="line"/>
      <point x="522" y="260" type="line" smooth="yes"/>
      <point x="522" y="143"/>
      <point x="456" y="79"/>
      <point x="354" y="79" type="curve" smooth="yes"/>
      <point x="252" y="79"/>
      <point x="186" y="143"/>
      <point x="186" y="260" type="curve" smooth="yes"/>
      <point x="186" y="690" type="line"/>
      <point x="90" y="690" type="line"/>
      <point x="90" y="250" type="line" smooth="yes"/>
      <point x="90" y="83"/>
      <point x="204" y="-10"/>
      <point x="353" y="-10" type="curve" smooth="yes"/>
      <point x="364" y="-10"/>
      <point x="375" y="-9"/>
      <point x="386" y="-8" type="curve"/>
      <point x="352" y="-32"/>
      <point x="322" y="-69"/>
      <point x="322" y="-110" type="curve" smooth="yes"/>
      <point x="322" y="-162"/>
      <point x="364" y="-195"/>
      <point x="418" y="-195" type="curve" smooth="yes"/>
      <point x="452" y="-195"/>
      <point x="476" y="-185"/>
    </contour>
  </outline>
</glyph>
<glyph name="Schwa" format="1">
  <advance width="706"/>
  <unicode hex="018F"/>
  <outline>
    <contour>
      <point x="60" y="335" type="curve" smooth="yes"/>
      <point x="60" y="112"/>
      <point x="192" y="-10"/>
      <point x="353" y="-10" type="curve" smooth="yes"/>
      <point x="514" y="-10"/>
      <point x="646" y="112"/>
      <point x="646" y="345" type="curve" smooth="yes"/>
      <point x="646" y="578"/>
      <point x="514" y="700"/>
      <point x="333" y="700" type="curve" smooth="yes"/>
      <point x="240" y="700"/>
      <point x="164" y="670"/>
      <point x="102" y="626" type="curve"/>
      <point x="148" y="548" type="line"/>
      <point x="196" y="582"/>
      <point x="266" y="611"/>
      <point x="333" y="611" type="curve" smooth="yes"/>
      <point x="464" y="611"/>
      <point x="547" y="522"/>
      <point x="547" y="345" type="curve" smooth="yes"/>
      <point x="547" y="168"/>
      <point x="464" y="79"/>
      <point x="353" y="79" type="curve" smooth="yes"/>
      <point x="242" y="79"/>
      <point x="159" y="168"/>
      <point x="159" y="335" type="curve"/>
      <point x="136" y="284" type="line"/>
      <point x="568" y="284" type="line"/>
      <point x="568" y="370" type="line"/>
      <point x="62" y="370" type="line"/>
      <point x="61" y="360"/>
      <point x="60" y="346"/>
    </contour>
  </outline>
</glyph>
<glyph name="florin" format="1">
  <advance width="660"/>
  <unicode hex="0192"/>
  <outline>
    <contour>
      <point x="119" y="-181" type="line"/>
      <point x="140" y="-189"/>
      <point x="167" y="-195"/>
      <point x="194" y="-195" type="curve"/>
      <point x="284" y="-195"/>
      <point x="352" y="-134"/>
      <point x="352" y="-34" type="curve" smooth="yes"/>
      <point x="352" y="554" type="line" smooth="yes"/>
      <point x="352" y="613"/>
      <point x="379" y="651"/>
      <point x="435" y="651" type="curve" smooth="yes"/>
      <point x="460" y="651"/>
      <point x="485" y="645"/>
      <point x="513" y="633" type="curve"/>
      <point x="531" y="707" type="line"/>
      <point x="499" y="721"/>
      <point x="463" y="730"/>
      <point x="422" y="730" type="curve" smooth="yes"/>
      <point x="333" y="730"/>
      <point x="260" y="667"/>
      <point x="260" y="557" type="curve" smooth="yes"/>
      <point x="260" y="-30" type="line" smooth="yes"/>
      <point x="260" y="-88"/>
      <point x="234" y="-114"/>
      <point x="188" y="-114" type="curve"/>
      <point x="168" y="-114"/>
      <point x="151" y="-110"/>
      <point x="135" y="-105" type="curve"/>
    </contour>
    <contour>
      <point x="170" y="435" type="line"/>
      <point x="504" y="435" type="line"/>
      <point x="504" y="515" type="line"/>
      <point x="170" y="515" type="line"/>
    </contour>
  </outline>
</glyph>
<glyph name="Nhookleft" format="1">
  <advance width="746"/>
  <unicode hex="019D"/>
  <outline>
    <contour>
      <point x="-41" y="-181" type="line"/>
      <point x="-20" y="-189"/>
      <point x="7" y="-195"/>
      <point x="34" y="-195" type="curve" smooth="yes"/>
      <point x="126" y="-195"/>
      <point x="196" y="-134"/>
      <point x="196" y="-34" type="curve" smooth="yes"/>
      <point x="196" y="690" type="line"/>
      <point x="100" y="690" type="line"/>
      <point x="100" y="-30" type="line" smooth="yes"/>
      <point x="100" y="-88"/>
      <point x="74" y="-114"/>
      <point x="28" y="-114" type="curve" smooth="yes"/>
      <point x="8" y="-114"/>
      <point x="-9" y="-110"/>
      <point x="-25" y="-105" type="curve"/>
    </contour>
    <contour>
      <point x="144" y="690" type="line"/>
      <point x="500" y="0" type="line"/>
      <point x="602" y="0" type="line"/>
      <point x="246" y="690" type="line"/>
    </contour>
    <contour>
      <point x="550" y="0" type="line"/>
      <point x="646" y="0" type="line"/>
      <point x="646" y="690" type="line"/>
      <point x="550" y="690" type="line"/>
    </contour>
  </outline>
</glyph>
<glyph name="Oogonek" format="1">
  <advance width="726"/>
  <unicode hex="01EA"/>
  <outline>
    <contour>
      <point x="500" y="-170" type="curve"/>
      <point x="480" y="-122" type="line"/>
      <point x="466" y="-130"/>
      <point x="450" y="-139"/>
      <point x="428" y="-139" type="curve" smooth="yes"/>
      <point x="406" y="-139"/>
      <point x="388" y="-124"/>
      <point x="388" y="-100" type="curve" smooth="yes"/>
      <point x="388" y="-66"/>
      <point x="422" y="-28"/>
      <point x="516" y="30" type="curve" smooth="yes"/>
      <point x="605" y="85"/>
      <point x="666" y="190"/>
      <point x="666" y="345" type="curve" smooth="yes"/>
      <point x="666" y="578"/>
      <point x="529" y="700"/>
      <point x="363" y="700" type="curve" smooth="yes"/>
      <point x="197" y="700"/>
      <point x="60" y="578"/>
      <point x="60" y="345" type="curve" smooth="yes"/>
      <point x="60" y="112"/>
      <point x="197" y="-10"/>
      <point x="363" y="-10" type="curve" smooth="yes"/>
      <point x="370" y="-10"/>
      <point x="378" y="-10"/>
      <point x="385" y="-9" type="curve"/>
      <point x="351" y="-33"/>
      <point x="322" y="-70"/>
      <point x="322" y="-110" type="curve" smooth="yes"/>
      <point x="322" y="-162"/>
      <point x="364" y="-195"/>
      <point x="418" y="-195" type="curve" smooth="yes"/>
      <point x="452" y="-195"/>
      <point x="476" y="-185"/>
    </contour>
    <contour>
      <point x="159" y="345" type="curve" smooth="yes"/>
      <point x="159" y="522"/>
      <point x="246" y="611"/>
      <point x="363" y="611" type="curve" smooth="yes"/>
      <point x="480" y="611"/>
      <point x="567" y="522"/>
      <point x="567" y="345" type="curve" smooth="yes"/>
      <point x="567" y="168"/>
      <point x="480" y="79"/>
      <point x="363" y="79" type="curve" smooth="yes"/>
      <point x="246" y="79"/>
      <point x="159" y="168"/>
    </contour>
  </outline>
</glyph>
<glyph name="oogonek" format="1">
  <advance width="572"/>
  <unicode hex="01EB"/>
  <outline>
    <contour>
      <point x="410" y="-170" type="curve"/>
      <point x="390" y="-122" type="line"/>
      <point x="376" y="-130"/>
      <point x="360" y="-139"/>
      <point x="338" y="-139" type="curve" smooth="yes"/>
      <point x="316" y="-139"/>
      <point x="298" y="-124"/>
      <point x="298" y="-100" type="curve" smooth="yes"/>
      <point x="298" y="-67"/>
      <point x="331" y="-32"/>
      <point x="412" y="24" type="curve" smooth="yes"/>
      <point x="478" y="70"/>
      <point x="517" y="144"/>
      <point x="517" y="257" type="curve" smooth="yes"/>
      <point x="517" y="430"/>
      <point x="420" y="525"/>
      <point x="286" y="525" type="curve" smooth="yes"/>
      <point x="152" y="525"/>
      <point x="55" y="430"/>
      <point x="55" y="257" type="curve" smooth="yes"/>
      <point x="55" y="84"/>
      <point x="152" y="-10"/>
      <point x="286" y="-10" type="curve" smooth="yes"/>
      <point x="289" y="-10"/>
      <point x="291" y="-10"/>
      <point x="294" y="-10" type="curve"/>
      <point x="261" y="-33"/>
      <point x="232" y="-70"/>
      <point x="232" y="-110" type="curve" smooth="yes"/>
      <point x="232" y="-162"/>
      <point x="274" y="-195"/>
      <point x="328" y="-195" type="curve" smooth="yes"/>
      <point x="362" y="-195"/>
      <point x="386" y="-185"/>
    </contour>
    <contour>
      <point x="149" y="257" type="curve" smooth="yes"/>
      <point x="149" y="377"/>
      <point x="200" y="444"/>
      <point x="286" y="444" type="curve" smooth="yes"/>
      <point x="372" y="444"/>
      <point x="423" y="377"/>
      <point x="423" y="257" type="curve" smooth="yes"/>
      <point x="423" y="137"/>
      <point x="372" y="71"/>
      <point x="286" y="71" type="curve" smooth="yes"/>
      <point x="200" y="71"/>
      <point x="149" y="137"/>
    </contour>
  </outline>
</glyph>
<glyph name="ipa:schwa" format="1">
  <advance width="553"/>
  <unicode hex="0259"/>
  <outline>
    <contour>
      <point x="55" y="248" type="curve" smooth="yes"/>
      <point x="55" y="76"/>
      <point x="150" y="-10"/>
      <point x="268" y="-10" type="curve" smooth="yes"/>
      <point x="396" y="-10"/>
      <point x="498" y="83"/>
      <point x="498" y="263" type="curve" smooth="yes"/>
      <point x="498" y="438"/>
      <point x="391" y="525"/>
      <point x="247" y="525" type="curve" smooth="yes"/>
      <point x="186" y="525"/>
      <point x="128" y="509"/>
      <point x="82" y="472" type="curve"/>
      <point x="125" y="399" type="line"/>
      <point x="156" y="423"/>
      <point x="196" y="441"/>
      <point x="244" y="441" type="curve" smooth="yes"/>
      <point x="334" y="441"/>
      <point x="404" y="381"/>
      <point x="404" y="263" type="curve" smooth="yes"/>
      <point x="404" y="136"/>
      <point x="349" y="71"/>
      <point x="269" y="71" type="curve" smooth="yes"/>
      <point x="201" y="71"/>
      <point x="145" y="120"/>
      <point x="145" y="248" type="curve"/>
      <point x="127" y="211" type="line"/>
      <point x="419" y="211" type="line"/>
      <point x="419" y="285" type="line"/>
      <point x="57" y="285" type="line"/>
      <point x="56" y="273"/>
      <point x="55" y="260"/>
    </contour>
  </outline>
</glyph>
<glyph name="circumflex" format="1">
  <advance width="600"/>
  <unicode hex="02C6"/>
  <outline>
    <contour>
      <point x="162" y="590" type="line"/>
      <point x="249" y="740" type="line"/>
      <point x="345" y="740" type="line"/>
      <point x="239" y="590" type="line"/>
    </contour>
    <contour>
      <point x="255" y="740" type="line"/>
      <point x="351" y="740" type="line"/>
      <point x="438" y="590" type="line"/>
      <point x="361" y="590" type="line"/>
    </contour>
    <contour>
      <point x="300" y="515" type="move" name="_top"/>
    </contour>
  </outline>
</glyph>
<glyph name="ogonek" format="1">
  <advance width="600"/>
  <unicode hex="02DB"/>
  <outline>
    <contour>
      <point x="222" y="-110" type="curve" smooth="yes"/>
      <point x="222" y="-162"/>
      <point x="264" y="-195"/>
      <point x="318" y="-195" type="curve" smooth="yes"/>
      <point x="352" y="-195"/>
      <point x="376" y="-185"/>
      <point x="400" y="-170" type="curve"/>
      <point x="380" y="-122" type="line"/>
      <point x="366" y="-130"/>
      <point x="350" y="-139"/>
      <point x="328" y="-139" type="curve" smooth="yes"/>
      <point x="306" y="-139"/>
      <point x="288" y="-124"/>
      <point x="288" y="-100" type="curve" smooth="yes"/>
      <point x="288" y="-64"/>
      <point x="326" y="-30"/>
      <point x="380" y="0" type="curve"/>
      <point x="300" y="0" type="line"/>
      <point x="260" y="-22"/>
      <point x="222" y="-64"/>
    </contour>
    <contour>
      <point x="300" y="0" type="move" name="_ogonek"/>
    </contour>
  </outline>
</glyph>
<glyph name="hungarumlaut" format="1">
  <advance width="600"/>
  <unicode hex="02DD"/>
  <outline>
    <contour>
      <point x="165" y="590" type="line"/>
      <point x="220" y="740" type="line"/>
      <point x="325" y="740" type="line"/>
      <point x="235" y="590" type="line"/>
    </contour>
    <contour>
      <point x="335" y="590" type="line"/>
      <point x="400" y="740" type="line"/>
      <point x="505" y="740" type="line"/>
      <point x="405" y="590" type="line"/>
    </contour>
    <contour>
      <point x="300" y="515" type="move" name="_top"/>
    </contour>
  </outline>
</glyph>
<glyph name="Delta" format="1">
  <advance width="660"/>
  <unicode hex="0394"/>
  <outline>
    <contour>
      <point x="32" y="0" type="line"/>
      <point x="132" y="0" type="line"/>
      <point x="345" y="600" type="line"/>
      <point x="337" y="690" type="line"/>
      <point x="290" y="690" type="line"/>
    </contour>
    <contour>
      <point x="102" y="0" type="line"/>
      <point x="558" y="0" type="line"/>
      <point x="558" y="86" type="line"/>
      <point x="102" y="86" type="line"/>
    </contour>
    <contour>
      <point x="311" y="600" type="line"/>
      <point x="524" y="0" type="line"/>
      <point x="628" y="0" type="line"/>
      <point x="370" y="690" type="line"/>
      <point x="315" y="690" type="line"/>
    </contour>
  </outline>
</glyph>
<glyph name="Omega" format="1">
  <advance width="726"/>
  <unicode hex="03A9"/>
  <outline>
    <contour>
      <point x="363" y="611" type="curve" smooth="yes"/>
      <point x="474" y="611"/>
      <point x="557" y="522"/>
      <point x="557" y="365" type="curve" smooth="yes"/>
      <point x="557" y="234"/>
      <point x="495" y="150"/>
      <point x="433" y="110" type="curve"/>
      <point x="433" y="0" type="line"/>
      <point x="656" y="0" type="line"/>
      <point x="656" y="81" type="line"/>
      <point x="486" y="81" type="line"/>
      <point x="433" y="30" type="line"/>
      <point x="560" y="94"/>
      <point x="656" y="204"/>
      <point x="656" y="365" type="curve" smooth="yes"/>
      <point x="656" y="578"/>
      <point x="524" y="700"/>
      <point x="363" y="700" type="curve" smooth="yes"/>
      <point x="202" y="700"/>
      <point x="70" y="578"/>
      <point x="70" y="365" type="curve" smooth="yes"/>
      <point x="70" y="204"/>
      <point x="166" y="94"/>
      <point x="293" y="30" type="curve"/>
      <point x="240" y="81" type="line"/>
      <point x="70" y="81" type="line"/>
      <point x="70" y="0" type="line"/>
      <point x="293" y="0" type="line"/>
      <point x="293" y="110" type="line"/>
      <point x="231" y="150"/>
      <point x="169" y="234"/>
      <point x="169" y="365" type="curve" smooth="yes"/>
      <point x="169" y="522"/>
      <point x="252" y="611"/>
    </contour>
  </outline>
</glyph>
<glyph name="mu" format="1">
  <advance width="605"/>
  <unicode hex="03BC"/>
  <outline>
    <contour>
      <point x="90" y="-185" type="line"/>
      <point x="182" y="-185" type="line"/>
      <point x="172" y="120" type="line"/>
      <point x="150" y="120" type="line"/>
      <point x="150.0" y="32.0"/>
      <point x="204" y="-10"/>
      <point x="277" y="-10" type="curve" smooth="yes"/>
      <point x="340" y="-10"/>
      <point x="394.9640030673622" y="30.226912994824666"/>
      <point x="438" y="85" type="curve"/>
      <point x="438" y="157" type="line"/>
      <point x="394" y="107"/>
      <point x="344" y="77"/>
      <point x="291" y="77" type="curve" smooth="yes"/>
      <point x="227" y="77"/>
      <point x="182" y="118"/>
      <point x="182" y="211" type="curve" smooth="yes"/>
      <point x="182" y="515" type="line"/>
      <point x="90" y="515" type="line"/>
    </contour>
    <contour>
      <point x="423" y="132" type="line"/>
      <point x="429" y="79" type="line"/>
      <point x="433" y="16"/>
      <point x="470" y="-10"/>
      <point x="513" y="-10" type="curve"/>
      <point x="528" y="-10"/>
      <point x="547" y="-6"/>
      <point x="561" y="0" type="curve"/>
      <point x="561" y="75" type="line"/>
      <point x="553" y="72"/>
      <point x="548" y="71"/>
      <point x="540" y="71" type="curve"/>
      <point x="525" y="71"/>
      <point x="515" y="79"/>
      <point x="515" y="100" type="curve" smooth="yes"/>
      <point x="515" y="515" type="line"/>
      <point x="423" y="515" type="line"/>
    </contour>
  </outline>
</glyph>
<glyph name="pi" format="1">
  <advance width="600"/>
  <unicode hex="03C0"/>
  <outline>
    <contour>
      <point x="40" y="434" type="line"/>
      <point x="555" y="434" type="line"/>
      <point x="555" y="515" type="line"/>
      <point x="40" y="515" type="line"/>
    </contour>
    <contour>
      <point x="115" y="0" type="line"/>
      <point x="207" y="0" type="line"/>
      <point x="207" y="515" type="line"/>
      <point x="115" y="515" type="line"/>
    </contour>
    <contour>
      <point x="388" y="110" type="line" smooth="yes"/>
      <point x="388" y="20"/>
      <point x="420" y="-10"/>
      <point x="478" y="-10" type="curve" smooth="yes"/>
      <point x="493" y="-10"/>
      <point x="512" y="-6"/>
      <point x="526" y="0" type="curve"/>
      <point x="526" y="75" type="line"/>
      <point x="518" y="72"/>
      <point x="513" y="71"/>
      <point x="505" y="71" type="curve" smooth="yes"/>
      <point x="490" y="71"/>
      <point x="480" y="79"/>
      <point x="480" y="100" type="curve" smooth="yes"/>
      <point x="480" y="515" type="line"/>
      <point x="388" y="515" type="line"/>
    </contour>
  </outline>
</glyph>
<glyph name="endash" format="1">
  <advance width="604"/>
  <unicode hex="2013"/>
  <outline>
    <contour>
      <point x="60" y="240" type="line"/>
      <point x="544" y="240" type="line"/>
      <point x="544" y="310" type="line"/>
      <point x="60" y="310" type="line"/>
    </contour>
  </outline>
</glyph>
<glyph name="emdash" format="1">
  <advance width="881"/>
  <unicode hex="2014"/>
  <outline>
    <contour>
      <point x="60" y="240" type="line"/>
      <point x="821" y="240" type="line"/>
      <point x="821" y="310" type="line"/>
      <point x="60" y="310" type="line"/>
    </contour>
  </outline>
</glyph>
<glyph name="quoteleft" format="1">
  <advance width="222"/>
  <unicode hex="2018"/>
  <outline>
    <contour>
      <point x="165" y="720" type="line"/>
      <point x="109" y="720" type="line"/>
      <point x="64" y="600" type="line" smooth="yes"/>
      <point x="54" y="573"/>
      <point x="48" y="553"/>
      <point x="48" y="531" type="curve" smooth="yes"/>
      <point x="48" y="486"/>
      <point x="74" y="460"/>
      <point x="111" y="460" type="curve" smooth="yes"/>
      <point x="146" y="460"/>
      <point x="174" y="486"/>
      <point x="174" y="522" type="curve" smooth="yes"/>
      <point x="174" y="555"/>
      <point x="154" y="575"/>
      <point x="130" y="582" type="curve"/>
    </contour>
  </outline>
</glyph>
<glyph name="quoteright" format="1">
  <advance width="222"/>
  <unicode hex="2019"/>
  <outline>
    <contour>
      <point x="57" y="470" type="line"/>
      <point x="113" y="470" type="line"/>
      <point x="158" y="590" type="line" smooth="yes"/>
      <point x="168" y="617"/>
      <point x="174" y="637"/>
      <point x="174" y="659" type="curve" smooth="yes"/>
      <point x="174" y="704"/>
      <point x="148" y="730"/>
      <point x="111" y="730" type="curve" smooth="yes"/>
      <point x="76" y="730"/>
      <point x="48" y="704"/>
      <point x="48" y="668" type="curve" smooth="yes"/>
      <point x="48" y="635"/>
      <point x="68" y="615"/>
      <point x="92" y="608" type="curve"/>
    </contour>
  </outline>
</glyph>
<glyph name="guilsinglleft" format="1">
  <advance width="299"/>
  <unicode hex="2039"/>
  <outline>
    <contour>
      <point x="45" y="247" type="line"/>
      <point x="165" y="83" type="line"/>
      <point x="264" y="83" type="line"/>
      <point x="105" y="293" type="line"/>
      <point x="45" y="292" type="line"/>
    </contour>
    <contour>
      <point x="45" y="249" type="line"/>
      <point x="105" y="248" type="line"/>
      <point x="264" y="458" type="line"/>
      <point x="165" y="458" type="line"/>
      <point x="45" y="294" type="line"/>
    </contour>
  </outline>
</glyph>
<glyph name="guilsinglright" format="1">
  <advance width="299"/>
  <unicode hex="203A"/>
  <outline>
    <contour>
      <point x="35" y="83" type="line"/>
      <point x="134" y="83" type="line"/>
      <point x="254" y="247" type="line"/>
      <point x="254" y="292" type="line"/>
      <point x="194" y="293" type="line"/>
    </contour>
    <contour>
      <point x="35" y="458" type="line"/>
      <point x="194" y="248" type="line"/>
      <point x="254" y="249" type="line"/>
      <point x="254" y="294" type="line"/>
      <point x="134" y="458" type="line"/>
    </contour>
  </outline>
</glyph>
<glyph name="fraction" format="1">
  <advance width="500"/>
  <unicode hex="2044"/>
  <outline>
    <contour>
      <point x="0" y="0" type="line"/>
      <point x="80" y="0" type="line"/>
      <point x="500" y="690" type="line"/>
      <point x="420" y="690" type="line"/>
    </contour>
  </outline>
</glyph>
<glyph name="Euro" format="1">
  <advance width="660"/>
  <unicode hex="20AC"/>
  <outline>
    <contour>
      <point x="128" y="345" type="curve" smooth="yes"/>
      <point x="128" y="116"/>
      <point x="255" y="-10"/>
      <point x="409" y="-10" type="curve" smooth="yes"/>
      <point x="492" y="-10"/>
      <point x="561" y="24"/>
      <point x="620" y="84" type="curve"/>
      <point x="555" y="149" type="line"/>
      <point x="515" y="104"/>
      <point x="467" y="81"/>
      <point x="409" y="81" type="curve" smooth="yes"/>
      <point x="303" y="81"/>
      <point x="227" y="172"/>
      <point x="227" y="345" type="curve" smooth="yes"/>
      <point x="227" y="517"/>
      <point x="303" y="609"/>
      <point x="409" y="609" type="curve" smooth="yes"/>
      <point x="460" y="609"/>
      <point x="504" y="585"/>
      <point x="544" y="543" type="curve"/>
      <point x="612" y="608" type="line"/>
      <point x="553" y="665"/>
      <point x="485" y="700"/>
      <point x="409" y="700" type="curve" smooth="yes"/>
      <point x="255" y="700"/>
      <point x="128" y="573"/>
    </contour>
    <contour>
      <point x="60" y="215" type="line"/>
      <point x="460" y="215" type="line"/>
      <point x="460" y="295" type="line"/>
      <point x="60" y="295" type="line"/>
    </contour>
    <contour>
      <point x="60" y="395" type="line"/>
      <point x="460" y="395" type="line"/>
      <point x="460" y="475" type="line"/>
      <point x="60" y="475" type="line"/>
    </contour>
  </outline>
</glyph>
<glyph name="numero" format="1">
  <advance width="1126"/>
  <unicode hex="2116"/>
  <outline>
    <contour>
      <point x="746" y="490" type="curve" smooth="yes"/>
      <point x="746" y="348"/>
      <point x="818" y="280"/>
      <point x="906" y="280" type="curve" smooth="yes"/>
      <point x="994" y="280"/>
      <point x="1066" y="348"/>
      <point x="1066" y="490" type="curve" smooth="yes"/>
      <point x="1066" y="632"/>
      <point x="994" y="700"/>
      <point x="906" y="700" type="curve" smooth="yes"/>
      <point x="818" y="700"/>
      <point x="746" y="632"/>
    </contour>
    <contour>
      <point x="826" y="490" type="curve" smooth="yes"/>
      <point x="826" y="586"/>
      <point x="861" y="630"/>
      <point x="906" y="630" type="curve" smooth="yes"/>
      <point x="951" y="630"/>
      <point x="986" y="586"/>
      <point x="986" y="490" type="curve" smooth="yes"/>
      <point x="986" y="394"/>
      <point x="951" y="350"/>
      <point x="906" y="350" type="curve" smooth="yes"/>
      <point x="861" y="350"/>
      <point x="826" y="394"/>
    </contour>
    <contour>
      <point x="756" y="120" type="line"/>
      <point x="1056" y="120" type="line"/>
      <point x="1056" y="200" type="line"/>
      <point x="756" y="200" type="line"/>
    </contour>
    <contour>
      <point x="100" y="0" type="line"/>
      <point x="196" y="0" type="line"/>
      <point x="196" y="690" type="line"/>
      <point x="100" y="690" type="line"/>
    </contour>
    <contour>
      <point x="144" y="690" type="line"/>
      <point x="500" y="0" type="line"/>
      <point x="602" y="0" type="line"/>
      <point x="246" y="690" type="line"/>
    </contour>
    <contour>
      <point x="550" y="0" type="line"/>
      <point x="646" y="0" type="line"/>
      <point x="646" y="690" type="line"/>
      <point x="550" y="690" type="line"/>
    </contour>
  </outline>
</glyph>
<glyph name="partialdiff" format="1">
  <advance width="640"/>
  <unicode hex="2202"/>
  <outline>
    <contour>
      <point x="180" y="480"/>
      <point x="60" y="360"/>
      <point x="60" y="200" type="curve" smooth="yes"/>
      <point x="60" y="70"/>
      <point x="140" y="-10"/>
      <point x="250" y="-10" type="curve" smooth="yes"/>
      <point x="410" y="-10"/>
      <point x="544" y="140"/>
      <point x="544" y="390" type="curve" smooth="yes"/>
      <point x="544" y="560"/>
      <point x="470" y="730"/>
      <point x="300" y="730" type="curve" smooth="yes"/>
      <point x="260" y="730"/>
      <point x="220" y="724"/>
      <point x="190" y="715" type="curve"/>
      <point x="200" y="635" type="line"/>
      <point x="220" y="642"/>
      <point x="250" y="650"/>
      <point x="280" y="650" type="curve" smooth="yes"/>
      <point x="400" y="650"/>
      <point x="452" y="530"/>
      <point x="452" y="390" type="curve" smooth="yes"/>
      <point x="452" y="200"/>
      <point x="370" y="71"/>
      <point x="260" y="71" type="curve" smooth="yes"/>
      <point x="198" y="71"/>
      <point x="154" y="110"/>
      <point x="154" y="200" type="curve" smooth="yes"/>
      <point x="154" y="320"/>
      <point x="230" y="399"/>
      <point x="330" y="399" type="curve" smooth="yes"/>
      <point x="390" y="399"/>
      <point x="439" y="364"/>
      <point x="456" y="310" type="curve"/>
      <point x="471" y="380" type="line"/>
      <point x="451" y="430"/>
      <point x="410" y="480"/>
      <point x="318" y="480" type="curve" smooth="yes"/>
    </contour>
  </outline>
</glyph>
<glyph name="product" format="1">
  <advance width="660"/>
  <unicode hex="220F"/>
  <outline>
    <contour>
      <point x="135" y="-185" type="line"/>
      <point x="231" y="-185" type="line"/>
      <point x="231" y="690" type="line"/>
      <point x="135" y="690" type="line"/>
    </contour>
    <contour>
      <point x="50" y="604" type="line"/>
      <point x="610" y="604" type="line"/>
      <point x="610" y="690" type="line"/>
      <point x="50" y="690" type="line"/>
    </contour>
    <contour>
      <point x="429" y="-185" type="line"/>
      <point x="525" y="-185" type="line"/>
      <point x="525" y="690" type="line"/>
      <point x="429" y="690" type="line"/>
    </contour>
  </outline>
</glyph>
<glyph name="summation" format="1">
  <advance width="660"/>
  <unicode hex="2211"/>
  <outline>
    <contour>
      <point x="90" y="-185" type="line"/>
      <point x="590" y="-185" type="line"/>
      <point x="590" y="-99" type="line"/>
      <point x="140" y="-99" type="line"/>
      <point x="90" y="-115" type="line"/>
    </contour>
    <contour>
      <point x="190" y="-115" type="line"/>
      <point x="440" y="260" type="line"/>
      <point x="340" y="260" type="line"/>
      <point x="90" y="-115" type="line"/>
    </contour>
    <contour>
      <point x="340" y="250" type="line"/>
      <point x="440" y="260" type="line"/>
      <point x="190" y="630" type="line"/>
      <point x="90" y="620" type="line"/>
    </contour>
    <contour>
      <point x="90" y="620" type="line"/>
      <point x="140" y="604" type="line"/>
      <point x="590" y="604" type="line"/>
      <point x="590" y="690" type="line"/>
      <point x="90" y="690" type="line"/>
    </contour>
  </outline>
</glyph>
<glyph name="minus" format="1">
  <advance width="640"/>
  <unicode hex="2212"/>
  <outline>
    <contour>
      <point x="93" y="250" type="line"/>
      <point x="547" y="250" type="line"/>
      <point x="547" y="330" type="line"/>
      <point x="93" y="330" type="line"/>
    </contour>
  </outline>
</glyph>
<glyph name="bulletoperator" format="1">
  <advance width="600"/>
  <unicode hex="2219"/>
  <outline>
    <contour>
      <point x="180.0" y="290" type="curve" smooth="yes"/>
      <point x="180.0" y="220"/>
      <point x="230.0" y="170"/>
      <point x="300.0" y="170" type="curve" smooth="yes"/>
      <point x="370.0" y="170"/>
      <point x="420.0" y="220"/>
      <point x="420.0" y="290" type="curve" smooth="yes"/>
      <point x="420.0" y="360"/>
      <point x="370.0" y="410"/>
      <point x="300.0" y="410" type="curve" smooth="yes"/>
      <point x="230.0" y="410"/>
      <point x="180.0" y="360"/>
    </contour>
  </outline>
</glyph>
<glyph name="radical" format="1">
  <advance width="700"/>
  <unicode hex="221A"/>
  <outline>
    <contour>
      <point x="100" y="330" type="line"/>
      <point x="302" y="-185" type="line"/>
      <point x="355" y="-185" type="line"/>
      <point x="354" y="-95" type="line"/>
      <point x="199" y="330" type="line"/>
    </contour>
    <contour>
      <point x="328" y="-95" type="line"/>
      <point x="329" y="-185" type="line"/>
      <point x="374" y="-185" type="line"/>
      <point x="710" y="690" type="line"/>
      <point x="615" y="690" type="line"/>
    </contour>
    <contour>
      <point x="20" y="250" type="line"/>
      <point x="190" y="250" type="line"/>
      <point x="190" y="330" type="line"/>
      <point x="20" y="330" type="line"/>
    </contour>
  </outline>
</glyph>
<glyph name="integral" format="1">
  <advance width="660"/>
  <unicode hex="222B"/>
  <outline>
    <contour>
      <point x="143" y="-181" type="line"/>
      <point x="164" y="-189"/>
      <point x="191" y="-195"/>
      <point x="218" y="-195" type="curve"/>
      <point x="308" y="-195"/>
      <point x="376" y="-134"/>
      <point x="376" y="-34" type="curve" smooth="yes"/>
      <point x="376" y="565" type="line" smooth="yes"/>
      <point x="376" y="623"/>
      <point x="402" y="649"/>
      <point x="448" y="649" type="curve"/>
      <point x="468" y="649"/>
      <point x="485" y="645"/>
      <point x="501" y="640" type="curve"/>
      <point x="517" y="716" type="line"/>
      <point x="496" y="724"/>
      <point x="469" y="730"/>
      <point x="442" y="730" type="curve"/>
      <point x="352" y="730"/>
      <point x="284" y="669"/>
      <point x="284" y="569" type="curve" smooth="yes"/>
      <point x="284" y="-30" type="line" smooth="yes"/>
      <point x="284" y="-88"/>
      <point x="258" y="-114"/>
      <point x="212" y="-114" type="curve"/>
      <point x="192" y="-114"/>
      <point x="175" y="-110"/>
      <point x="159" y="-105" type="curve"/>
    </contour>
  </outline>
</glyph>
<glyph name="approxequal" format="1">
  <advance width="660"/>
  <unicode hex="2248"/>
  <outline>
    <contour>
      <point x="124" y="110" type="line"/>
      <point x="150" y="130"/>
      <point x="189" y="160"/>
      <point x="229" y="160" type="curve" smooth="yes"/>
      <point x="299" y="160"/>
      <point x="347" y="100"/>
      <point x="427" y="100" type="curve" smooth="yes"/>
      <point x="487" y="100"/>
      <point x="536" y="132"/>
      <point x="578" y="166" type="curve"/>
      <point x="536" y="230" type="line"/>
      <point x="510" y="210"/>
      <point x="471" y="180"/>
      <point x="431" y="180" type="curve" smooth="yes"/>
      <point x="361" y="180"/>
      <point x="313" y="240"/>
      <point x="233" y="240" type="curve" smooth="yes"/>
      <point x="173" y="240"/>
      <point x="124" y="208"/>
      <point x="82" y="174" type="curve"/>
    </contour>
    <contour>
      <point x="124" y="350" type="line"/>
      <point x="150" y="370"/>
      <point x="189" y="400"/>
      <point x="229" y="400" type="curve" smooth="yes"/>
      <point x="299" y="400"/>
      <point x="347" y="340"/>
      <point x="427" y="340" type="curve" smooth="yes"/>
      <point x="487" y="340"/>
      <point x="536" y="372"/>
      <point x="578" y="406" type="curve"/>
      <point x="536" y="470" type="line"/>
      <point x="510" y="450"/>
      <point x="471" y="420"/>
      <point x="431" y="420" type="curve" smooth="yes"/>
      <point x="361" y="420"/>
      <point x="313" y="480"/>
      <point x="233" y="480" type="curve" smooth="yes"/>
      <point x="173" y="480"/>
      <point x="124" y="448"/>
      <point x="82" y="414" type="curve"/>
    </contour>
  </outline>
</glyph>
<glyph name="notequal" format="1">
  <advance width="600"/>
  <unicode hex="2260"/>
  <outline>
    <contour>
      <point x="73.0" y="130" type="line"/>
      <point x="527.0" y="130" type="line"/>
      <point x="527.0" y="210" type="line"/>
      <point x="73.0" y="210" type="line"/>
    </contour>
    <contour>
      <point x="73.0" y="370" type="line"/>
      <point x="527.0" y="370" type="line"/>
      <point x="527.0" y="450" type="line"/>
      <point x="73.0" y="450" type="line"/>
    </contour>
    <contour>
      <point x="150.0" y="-30" type="line"/>
      <point x="230.0" y="-30" type="line"/>
      <point x="450.0" y="610" type="line"/>
      <point x="370.0" y="610" type="line"/>
    </contour>
  </outline>
</glyph>
<glyph name="lessequal" format="1">
  <advance width="640"/>
  <unicode hex="2264"/>
  <outline>
    <contour>
      <point x="92" y="319" type="line"/>
      <point x="517" y="155" type="line"/>
      <point x="517" y="243" type="line"/>
      <point x="174" y="367" type="line"/>
      <point x="92" y="367" type="line"/>
    </contour>
    <contour>
      <point x="92" y="345" type="line"/>
      <point x="174" y="345" type="line"/>
      <point x="517" y="469" type="line"/>
      <point x="517" y="555" type="line"/>
      <point x="92" y="391" type="line"/>
    </contour>
    <contour>
      <point x="93" y="65" type="line"/>
      <point x="517" y="65" type="line"/>
      <point x="517" y="140" type="line"/>
      <point x="93" y="140" type="line"/>
    </contour>
  </outline>
</glyph>
<glyph name="greaterequal" format="1">
  <advance width="600"/>
  <unicode hex="2265"/>
  <outline>
    <contour>
      <point x="102" y="65" type="line"/>
      <point x="526.0" y="65" type="line"/>
      <point x="526.0" y="140" type="line"/>
      <point x="102.0" y="140" type="line"/>
    </contour>
    <contour>
      <point x="102" y="155" type="line"/>
      <point x="527" y="319" type="line"/>
      <point x="527" y="365" type="line"/>
      <point x="445" y="365" type="line"/>
      <point x="102" y="241" type="line"/>
    </contour>
    <contour>
      <point x="102" y="467" type="line"/>
      <point x="445" y="343" type="line"/>
      <point x="527" y="343" type="line"/>
      <point x="527" y="391" type="line"/>
      <point x="102" y="555" type="line"/>
    </contour>
  </outline>
</glyph>
<glyph name="lozenge" format="1">
  <advance width="660"/>
  <unicode hex="25CA"/>
  <outline>
    <contour>
      <point x="336" y="-20" type="line"/>
      <point x="146" y="300" type="line"/>
      <point x="50" y="290" type="line"/>
      <point x="288" y="-110" type="line"/>
      <point x="336" y="-110" type="line"/>
    </contour>
    <contour>
      <point x="50" y="290" type="line"/>
      <point x="147" y="290" type="line"/>
      <point x="331" y="600" type="line"/>
      <point x="331" y="690" type="line"/>
      <point x="288" y="690" type="line"/>
    </contour>
    <contour>
      <point x="610" y="290" type="line"/>
      <point x="513" y="290" type="line"/>
      <point x="329" y="-20" type="line"/>
      <point x="329" y="-110" type="line"/>
      <point x="372" y="-110" type="line"/>
    </contour>
    <contour>
      <point x="324" y="600" type="line"/>
      <point x="514" y="280" type="line"/>
      <point x="610" y="290" type="line"/>
      <point x="372" y="690" type="line"/>
      <point x="324" y="690" type="line"/>
    </contour>
  </outline>
</glyph>
<glyph name="gem" format="1">
  <advance width="1080"/>
  <unicode hex="F8FF"/>
  <outline>
    <contour>
      <point x="40" y="320" type="curve" smooth="yes"/>
      <point x="40" y="256"/>
      <point x="76" y="198"/>
      <point x="127" y="167" type="curve"/>
      <point x="127" y="473" type="line"/>
      <point x="76" y="442"/>
      <point x="40" y="384"/>
    </contour>
    <contour>
      <point x="156" y="320" type="curve" smooth="yes"/>
      <point x="156" y="221"/>
      <point x="236" y="141"/>
      <point x="334" y="141" type="curve"/>
      <point x="334" y="499" type="line"/>
      <point x="236" y="499"/>
      <point x="156" y="419"/>
    </contour>
    <contour>
      <point x="164" y="114" type="line"/>
      <point x="164" y="20"/>
      <point x="240" y="-56"/>
      <point x="334" y="-56" type="curve"/>
      <point x="334" y="114" type="line"/>
    </contour>
    <contour>
      <point x="164" y="526" type="curve"/>
      <point x="334" y="526" type="line"/>
      <point x="334" y="696" type="line"/>
      <point x="240" y="696"/>
      <point x="164" y="620"/>
    </contour>
    <contour>
      <point x="361" y="114" type="line"/>
      <point x="361" y="16"/>
      <point x="441" y="-64"/>
      <point x="540" y="-64" type="curve" smooth="yes"/>
      <point x="639" y="-64"/>
      <point x="719" y="16"/>
      <point x="719" y="114" type="curve"/>
    </contour>
    <contour>
      <point x="361" y="320" type="curve" smooth="yes"/>
      <point x="361" y="221"/>
      <point x="441" y="141"/>
      <point x="540" y="141" type="curve" smooth="yes"/>
      <point x="639" y="141"/>
      <point x="719" y="221"/>
      <point x="719" y="320" type="curve" smooth="yes"/>
      <point x="719" y="419"/>
      <point x="639" y="499"/>
      <point x="540" y="499" type="curve" smooth="yes"/>
      <point x="441" y="499"/>
      <point x="361" y="419"/>
    </contour>
    <contour>
      <point x="361" y="526" type="curve"/>
      <point x="719" y="526" type="line"/>
      <point x="719" y="624"/>
      <point x="639" y="704"/>
      <point x="540" y="704" type="curve" smooth="yes"/>
      <point x="441" y="704"/>
      <point x="361" y="624"/>
    </contour>
    <contour>
      <point x="387" y="-93" type="line"/>
      <point x="418" y="-144"/>
      <point x="476" y="-180"/>
      <point x="540" y="-180" type="curve" smooth="yes"/>
      <point x="604" y="-180"/>
      <point x="662" y="-144"/>
      <point x="693" y="-93" type="curve"/>
    </contour>
    <contour>
      <point x="387" y="733" type="curve"/>
      <point x="693" y="733" type="line"/>
      <point x="662" y="784"/>
      <point x="604" y="820"/>
      <point x="540" y="820" type="curve" smooth="yes"/>
      <point x="476" y="820"/>
      <point x="418" y="784"/>
    </contour>
    <contour>
      <point x="746" y="-56" type="line"/>
      <point x="840" y="-56"/>
      <point x="916" y="20"/>
      <point x="916" y="114" type="curve"/>
      <point x="746" y="114" type="line"/>
    </contour>
    <contour>
      <point x="746" y="141" type="line"/>
      <point x="844" y="141"/>
      <point x="924" y="221"/>
      <point x="924" y="320" type="curve" smooth="yes"/>
      <point x="924" y="419"/>
      <point x="844" y="499"/>
      <point x="746" y="499" type="curve"/>
    </contour>
    <contour>
      <point x="746" y="526" type="line"/>
      <point x="916" y="526" type="line"/>
      <point x="916" y="620"/>
      <point x="840" y="696"/>
      <point x="746" y="696" type="curve"/>
    </contour>
    <contour>
      <point x="953" y="167" type="line"/>
      <point x="1004" y="198"/>
      <point x="1040" y="256"/>
      <point x="1040" y="320" type="curve" smooth="yes"/>
      <point x="1040" y="384"/>
      <point x="1004" y="442"/>
      <point x="953" y="473" type="curve"/>
    </contour>
  </outline>
</glyph>
<glyph name="IJacute" format="1">
  <advance width="739"/>
  <outline>
    <contour>
      <point x="94" y="750" type="line"/>
      <point x="203" y="885" type="line"/>
      <point x="324" y="885" type="line"/>
      <point x="183" y="750" type="line"/>
    </contour>
    <contour>
      <point x="548" y="750" type="line"/>
      <point x="657" y="885" type="line"/>
      <point x="778" y="885" type="line"/>
      <point x="637" y="750" type="line"/>
    </contour>
    <component base="IJ"/>
    <contour>
      <point x="148" y="690" type="move" name="_top"/>
    </contour>
    <contour>
      <point x="602" y="690" type="move" name="_top"/>
    </contour>
  </outline>
</glyph>
<glyph name="I.alt" format="1">
  <advance width="296"/>
  <outline>
    <contour>
      <point x="100" y="0" type="line"/>
      <point x="196" y="0" type="line"/>
      <point x="196" y="690" type="line"/>
      <point x="100" y="690" type="line"/>
    </contour>
    <contour>
      <point x="148" y="690" type="move" name="top"/>
    </contour>
    <contour>
      <point x="148" y="0" type="move" name="bottom"/>
    </contour>
    <contour>
      <point x="100" y="0" type="move" name="ogonek"/>
    </contour>
  </outline>
</glyph>
<glyph name=".notdef" format="1">
  <advance width="592"/>
  <outline>
    <contour>
      <point x="100" y="-185" type="line"/>
      <point x="182" y="-185" type="line"/>
      <point x="182" y="690" type="line"/>
      <point x="100" y="690" type="line"/>
    </contour>
    <contour>
      <point x="147" y="-185" type="line"/>
      <point x="445" y="-185" type="line"/>
      <point x="445" y="-109" type="line"/>
      <point x="147" y="-109" type="line"/>
    </contour>
    <contour>
      <point x="147" y="614" type="line"/>
      <point x="445" y="614" type="line"/>
      <point x="445" y="690" type="line"/>
      <point x="147" y="690" type="line"/>
    </contour>
    <contour>
      <point x="410" y="-185" type="line"/>
      <point x="492" y="-185" type="line"/>
      <point x="492" y="690" type="line"/>
      <point x="410" y="690" type="line"/>
    </contour>
  </outline>
</glyph>
<glyph name="a.ss01" format="1">
  <advance width="548"/>
  <outline>
    <contour>
      <point x="60" y="132" type="curve"/>
      <point x="60" y="44"/>
      <point x="127" y="-10"/>
      <point x="202" y="-10" type="curve"/>
      <point x="276" y="-10"/>
      <point x="342" y="31"/>
      <point x="381" y="85" type="curve"/>
      <point x="381" y="157" type="line"/>
      <point x="334" y="105"/>
      <point x="279" y="74"/>
      <point x="222" y="74" type="curve"/>
      <point x="181" y="74"/>
      <point x="154" y="98"/>
      <point x="154" y="140" type="curve"/>
      <point x="154" y="183"/>
      <point x="185" y="224"/>
      <point x="315" y="237" type="curve" smooth="yes"/>
      <point x="374" y="243" type="line"/>
      <point x="374" y="308" type="line"/>
      <point x="311" y="306" type="line" smooth="yes"/>
      <point x="124" y="300"/>
      <point x="60" y="221"/>
    </contour>
    <contour>
      <point x="75" y="472" type="curve"/>
      <point x="107" y="394" type="line"/>
      <point x="152" y="419"/>
      <point x="196" y="437"/>
      <point x="249" y="437" type="curve"/>
      <point x="322" y="437"/>
      <point x="366.0" y="401.80303030303025"/>
      <point x="366" y="314" type="curve" smooth="yes"/>
      <point x="366" y="132" type="line"/>
      <point x="372" y="79" type="line"/>
      <point x="376" y="16"/>
      <point x="413" y="-10"/>
      <point x="456" y="-10" type="curve"/>
      <point x="471" y="-10"/>
      <point x="490" y="-6"/>
      <point x="504" y="0" type="curve"/>
      <point x="504" y="75" type="line"/>
      <point x="496" y="72"/>
      <point x="491" y="71"/>
      <point x="483" y="71" type="curve"/>
      <point x="468" y="71"/>
      <point x="458" y="79"/>
      <point x="458" y="100" type="curve" smooth="yes"/>
      <point x="458" y="325" type="line" smooth="yes"/>
      <point x="458.0" y="459.2857142857142"/>
      <point x="371" y="525"/>
      <point x="258" y="525" type="curve"/>
      <point x="197" y="525"/>
      <point x="122" y="501"/>
    </contour>
    <contour>
      <point x="265.0" y="515.0" type="move" name="top"/>
    </contour>
  </outline>
</glyph>
<glyph name="acute.cap" format="1">
  <advance width="600"/>
  <outline>
    <contour>
      <point x="246" y="750" type="line"/>
      <point x="335" y="750" type="line"/>
      <point x="476" y="885" type="line"/>
      <point x="355" y="885" type="line"/>
    </contour>
    <contour>
      <point x="300" y="690" type="move" name="_top"/>
    </contour>
  </outline>
</glyph>
<glyph name="breve.cap" format="1">
  <advance width="600"/>
  <outline>
    <contour>
      <point x="161" y="885" type="line"/>
      <point x="169.107941383264" y="796.7135271600141"/>
      <point x="222" y="750"/>
      <point x="300" y="750" type="curve"/>
      <point x="378" y="750"/>
      <point x="430.892058616736" y="796.7135271600141"/>
      <point x="439" y="885" type="curve"/>
      <point x="369" y="885" type="line"/>
      <point x="363.79530043803" y="841.6275036502499"/>
      <point x="339.0" y="821.0"/>
      <point x="300" y="821" type="curve"/>
      <point x="261.0" y="821.0"/>
      <point x="236.20469956197002" y="841.6275036502499"/>
      <point x="231" y="885" type="curve"/>
    </contour>
    <contour>
      <point x="300.0" y="690.0" type="move" name="_top"/>
    </contour>
  </outline>
</glyph>
<glyph name="caron.alt" format="1">
  <advance width="600"/>
  <outline>
    <contour>
      <point x="250" y="540" type="line"/>
      <point x="320" y="540" type="line"/>
      <point x="374" y="730" type="line"/>
      <point x="290" y="730" type="line"/>
    </contour>
    <contour>
      <point x="300" y="720" type="move" name="_caron.alt"/>
    </contour>
  </outline>
</glyph>
<glyph name="commaaccent" format="1">
  <advance width="600"/>
  <outline>
    <contour>
      <point x="258" y="-310" type="line"/>
      <point x="312" y="-310" type="line"/>
      <point x="342" y="-222" type="line" smooth="yes"/>
      <point x="350" y="-198"/>
      <point x="357" y="-180"/>
      <point x="357" y="-154" type="curve" smooth="yes"/>
      <point x="357" y="-116"/>
      <point x="336" y="-90"/>
      <point x="300" y="-90" type="curve" smooth="yes"/>
      <point x="266" y="-90"/>
      <point x="243" y="-116"/>
      <point x="243" y="-148" type="curve" smooth="yes"/>
      <point x="243" y="-180"/>
      <point x="264" y="-198"/>
      <point x="288" y="-204" type="curve"/>
    </contour>
    <contour>
      <point x="300.0" y="0.0" type="move" name="_bottom"/>
    </contour>
  </outline>
</glyph>
<glyph name="dieresis.cap" format="1">
  <advance width="600"/>
  <outline>
    <contour>
      <point x="137" y="817" type="curve" smooth="yes"/>
      <point x="137" y="786"/>
      <point x="160" y="760"/>
      <point x="194" y="760" type="curve" smooth="yes"/>
      <point x="230" y="760"/>
      <point x="251" y="786"/>
      <point x="251" y="817" type="curve" smooth="yes"/>
      <point x="251" y="849"/>
      <point x="230" y="875"/>
      <point x="194" y="875" type="curve" smooth="yes"/>
      <point x="160" y="875"/>
      <point x="137" y="849"/>
    </contour>
    <contour>
      <point x="349" y="817" type="curve" smooth="yes"/>
      <point x="349" y="786"/>
      <point x="372" y="760"/>
      <point x="406" y="760" type="curve" smooth="yes"/>
      <point x="442" y="760"/>
      <point x="463" y="786"/>
      <point x="463" y="817" type="curve" smooth="yes"/>
      <point x="463" y="849"/>
      <point x="442" y="875"/>
      <point x="406" y="875" type="curve" smooth="yes"/>
      <point x="372" y="875"/>
      <point x="349" y="849"/>
    </contour>
    <contour>
      <point x="300" y="690" type="move" name="_top"/>
    </contour>
  </outline>
</glyph>
<glyph name="hungarumlaut.cap" format="1">
  <advance width="600"/>
  <outline>
    <contour>
      <point x="154" y="750" type="line"/>
      <point x="234" y="750" type="line"/>
      <point x="336" y="885" type="line"/>
      <point x="224" y="885" type="line"/>
    </contour>
    <contour>
      <point x="346" y="750" type="line"/>
      <point x="426" y="750" type="line"/>
      <point x="538" y="885" type="line"/>
      <point x="426" y="885" type="line"/>
    </contour>
    <contour>
      <point x="300" y="690" type="move" name="_top"/>
    </contour>
  </outline>
</glyph>
<glyph name="macron.cap" format="1">
  <advance width="600"/>
  <outline>
    <contour>
      <point x="152" y="790" type="line"/>
      <point x="448" y="790" type="line"/>
      <point x="448" y="860" type="line"/>
      <point x="152" y="860" type="line"/>
    </contour>
    <contour>
      <point x="300" y="690" type="move" name="_top"/>
    </contour>
  </outline>
</glyph>
<glyph name="ring_acute" format="1">
  <advance width="600"/>
  <outline>
    <component base="ring"/>
    <component base="acute" yOffset="258"/>
    <contour>
      <point x="300" y="515" type="move" name="_top"/>
    </contour>
  </outline>
</glyph>
